<?xml version="1.0" encoding="UTF-8"?>
<svg width="64" height="64" version="1.1" xmlns="http://www.w3.org/2000/svg"><path d="m0 0v58h24c2.1299 0.43303 4.0657 1.6245 5.1562 2.8125s1.8958 2.1248 2.8438 3.1875c0.95867-1.0733 1.8-2.0367 2.877-3.2207s3.583-2.7793 5.123-2.7793h24v-58h-24c-3.6439 0-6.116 1.62-8 3-1.907-1.405-4.2642-3-8-3zm4 4h20c2.1299 0.43303 4.0657 1.6245 5.1562 2.8125s1.8958 2.1248 2.8438 3.1875c0.95867-1.0733 1.8-2.0367 2.877-3.2207s3.583-2.7793 5.123-2.7793h20v50h-20c-3.6439 0-6.116 1.62-8 3-1.907-1.405-4.2642-3-8-3h-20z" color="#bebebe" fill="#202020" stroke-width="4" style="font-feature-settings:normal;font-variant-alternates:normal;font-variant-caps:normal;font-variant-ligatures:normal;font-variant-numeric:normal;font-variant-position:normal;isolation:auto;mix-blend-mode:normal;shape-padding:0;text-decoration-color:#000000;text-decoration-line:none;text-decoration-style:solid;text-indent:0;text-orientation:mixed;text-transform:none;white-space:normal"/><path d="m9.5 13c-0.82935-0.0022-1.5022 0.67066-1.5 1.5v5c0 0.828 0.668 1.5 1.5 1.5h13c0.82934 0.0022 1.5022-0.67066 1.5-1.5v-5c0.0022-0.82934-0.67066-1.5022-1.5-1.5zm32 0c-0.82934-0.0022-1.5022 0.67066-1.5 1.5v5c0 0.832 0.668 1.5 1.5 1.5h13c0.82934 0.0022 1.5022-0.67066 1.5-1.5v-5c0.0022-0.82934-0.67066-1.5022-1.5-1.5zm-32 12c-0.82935-0.0022-1.5022 0.67066-1.5 1.5v5c0 0.832 0.668 1.5 1.5 1.5h13c0.82934 0.0022 1.5022-0.67066 1.5-1.5v-5c0.0022-0.82934-0.67066-1.5022-1.5-1.5zm32 0c-0.82934-0.0022-1.5022 0.67066-1.5 1.5v5c0 0.832 0.668 1.5 1.5 1.5h13c0.82934 0.0022 1.5022-0.67066 1.5-1.5v-5c0.0022-0.82934-0.67066-1.5022-1.5-1.5zm-32 12c-0.82935-0.0022-1.5022 0.67066-1.5 1.5v5c0 0.828 0.668 1.5 1.5 1.5h13c0.82934 0.0022 1.5022-0.67066 1.5-1.5v-5c0.0022-0.82934-0.67066-1.5022-1.5-1.5zm32 0c-0.82934-0.0022-1.5022 0.67066-1.5 1.5v5c0 0.832 0.668 1.5 1.5 1.5h13c0.82934 0.0022 1.5022-0.67066 1.5-1.5v-5c0.0022-0.82934-0.67066-1.5022-1.5-1.5z" color="#bebebe" fill="#202020" opacity=".35" stroke-width="4"/></svg>
