<?xml version="1.0" encoding="UTF-8" standalone="no"?>
<svg
   xmlns:dc="http://purl.org/dc/elements/1.1/"
   xmlns:cc="http://creativecommons.org/ns#"
   xmlns:rdf="http://www.w3.org/1999/02/22-rdf-syntax-ns#"
   xmlns:svg="http://www.w3.org/2000/svg"
   xmlns="http://www.w3.org/2000/svg"
   xmlns:sodipodi="http://sodipodi.sourceforge.net/DTD/sodipodi-0.dtd"
   xmlns:inkscape="http://www.inkscape.org/namespaces/inkscape"
   version="1.1"
   id="Calque_1"
   x="0px"
   y="0px"
   width="64"
   height="64"
   viewBox="0 0 64 64"
   enable-background="new 0 0 712 860"
   xml:space="preserve"
   inkscape:version="0.92.4 (5da689c313, 2019-01-14)"
   sodipodi:docname="about_description.svg"
   inkscape:export-filename="./Tux Mono.png"
   inkscape:export-xdpi="90"
   inkscape:export-ydpi="90"><metadata
     id="metadata23"><rdf:RDF><cc:Work
         rdf:about=""><dc:format>image/svg+xml</dc:format><dc:type
           rdf:resource="http://purl.org/dc/dcmitype/StillImage" /><dc:title></dc:title></cc:Work></rdf:RDF></metadata><defs
     id="defs21"><inkscape:path-effect
       fuse_tolerance="-0.1"
       vertical_pattern="false"
       prop_units="true"
       tang_offset="0"
       normal_offset="0"
       spacing="1.41"
       scale_y_rel="false"
       prop_scale="1"
       copytype="repeated"
       pattern="M 1.046875,0.523437 A 0.5234375,0.5234375 0 0 1 0.523437,1.046875 0.5234375,0.5234375 0 0 1 0,0.523437 0.5234375,0.5234375 0 0 1 0.523437,0 0.5234375,0.5234375 0 0 1 1.046875,0.523437 Z"
       is_visible="true"
       id="path-effect4830"
       effect="skeletal" /><inkscape:path-effect
       fuse_tolerance="-0.1"
       vertical_pattern="false"
       prop_units="true"
       tang_offset="0"
       normal_offset="0"
       spacing="1.41"
       scale_y_rel="false"
       prop_scale="1"
       copytype="repeated"
       pattern="M 1.046875,0.523437 A 0.5234375,0.5234375 0 0 1 0.523437,1.046875 0.5234375,0.5234375 0 0 1 0,0.523437 0.5234375,0.5234375 0 0 1 0.523437,0 0.5234375,0.5234375 0 0 1 1.046875,0.523437 Z"
       is_visible="true"
       id="path-effect4771"
       effect="skeletal" /><inkscape:path-effect
       effect="skeletal"
       id="path-effect1003"
       is_visible="true"
       pattern="M 1.046875,0.523437 A 0.5234375,0.5234375 0 0 1 0.523437,1.046875 0.5234375,0.5234375 0 0 1 0,0.523437 0.5234375,0.5234375 0 0 1 0.523437,0 0.5234375,0.5234375 0 0 1 1.046875,0.523437 Z"
       copytype="repeated"
       prop_scale="1"
       scale_y_rel="false"
       spacing="1.41"
       normal_offset="0"
       tang_offset="0"
       prop_units="true"
       vertical_pattern="false"
       fuse_tolerance="-0.1" /><inkscape:path-effect
       is_visible="true"
       id="path-effect29672-0"
       effect="spiro" /><inkscape:path-effect
       is_visible="true"
       id="path-effect29678-1"
       effect="spiro" /><inkscape:path-effect
       is_visible="true"
       id="path-effect29678-4-6"
       effect="spiro" /><inkscape:path-effect
       is_visible="true"
       id="path-effect28714-5"
       effect="spiro" /><inkscape:path-effect
       is_visible="true"
       id="path-effect29721-2"
       effect="spiro" /><inkscape:path-effect
       is_visible="true"
       id="path-effect28463-8-0"
       effect="spiro" /><inkscape:path-effect
       is_visible="true"
       id="path-effect28463-0-7"
       effect="spiro" /><linearGradient
       id="linearGradient28799-5-5"><stop
         id="stop28801-1-9"
         offset="0"
         style="stop-color:#fefefc;stop-opacity:1;" /><stop
         style="stop-color:#fefefc;stop-opacity:1"
         offset="0.75733864"
         id="stop28807-2-6" /><stop
         id="stop28803-6-3"
         offset="1"
         style="stop-color:#d4d4d4;stop-opacity:1" /></linearGradient><inkscape:path-effect
       is_visible="true"
       id="path-effect28797-8-1"
       effect="spiro" /><inkscape:path-effect
       is_visible="true"
       id="path-effect28797-81"
       effect="spiro" /><inkscape:path-effect
       is_visible="true"
       id="path-effect28273-4-2"
       effect="spiro" /><linearGradient
       id="linearGradient28853-5"><stop
         id="stop28855-3"
         offset="0"
         style="stop-color:#020204;stop-opacity:1" /><stop
         style="stop-color:#020204;stop-opacity:1"
         offset="0.73448181"
         id="stop28865-0" /><stop
         id="stop28857-9"
         offset="1"
         style="stop-color:#5c5c5c;stop-opacity:1;" /></linearGradient><inkscape:path-effect
       is_visible="true"
       id="path-effect28851-0"
       effect="spiro" /><inkscape:path-effect
       is_visible="true"
       id="path-effect28881-6"
       effect="spiro" /><linearGradient
       id="linearGradient28935-8"><stop
         id="stop28937-7"
         offset="0"
         style="stop-color:#949494;stop-opacity:0.39215687;" /><stop
         style="stop-color:#949494;stop-opacity:1;"
         offset="0.5"
         id="stop28943-3" /><stop
         id="stop28939-8"
         offset="1"
         style="stop-color:#949494;stop-opacity:0.39215687;" /></linearGradient><linearGradient
       id="linearGradient28976-3"><stop
         id="stop28978-7"
         offset="0"
         style="stop-color:#747474;stop-opacity:1" /><stop
         style="stop-color:#8c8c8c;stop-opacity:1;"
         offset="0.125"
         id="stop29259-5" /><stop
         style="stop-color:#a4a4a4;stop-opacity:1;"
         offset="0.25"
         id="stop29257-0" /><stop
         style="stop-color:#d4d4d4;stop-opacity:1"
         offset="0.5"
         id="stop28984-4" /><stop
         id="stop28986-0"
         offset="0.61919296"
         style="stop-color:#d4d4d4;stop-opacity:1" /><stop
         id="stop28980-2"
         offset="1"
         style="stop-color:#7c7c7c;stop-opacity:1" /></linearGradient><inkscape:path-effect
       is_visible="true"
       id="path-effect28974-8"
       effect="spiro" /><clipPath
       id="clipPath29028-5"
       clipPathUnits="userSpaceOnUse"><path
         sodipodi:nodetypes="aaaaaaaa"
         inkscape:connector-curvature="0"
         inkscape:original-d="m 85.75,122.36218 c -2.54738,2.12715 -5.20812,4.59907 -6.25,7.75 -1.30914,3.95917 -1.63336,8.91703 0.5,12.5 3.91901,6.58194 12.38353,13.85135 19.75,11.75 4.87452,-1.3905 6.10748,-8.51023 7,-13.5 0.59149,-3.30679 0.59578,-7.19325 -1.25,-10 -3.61233,-5.49303 -10.4265,-9.89357 -17,-10 -1.04403,-0.0169 -1.94852,0.83074 -2.75,1.5 z"
         id="path29030-7"
         d="m 85.75,122.36218 c -2.780425,1.91023 -5.110569,4.57487 -6.25,7.75 -1.436029,4.00163 -0.885838,8.48071 0.5,12.5 1.419488,4.11688 3.793788,8.04098 7.37932,10.51234 1.792766,1.23567 3.868091,2.08301 6.030402,2.33859 2.162311,0.25558 4.409274,-0.0949 6.340278,-1.10093 2.35312,-1.22596 4.14782,-3.37278 5.26217,-5.78076 1.11436,-2.40798 1.5888,-5.0701 1.73783,-7.71924 0.18989,-3.37546 -0.14047,-6.80646 -1.25,-10 -1.20527,-3.46909 -3.39005,-6.67055 -6.472754,-8.6666 -1.541351,-0.99803 -3.291947,-1.68356 -5.110883,-1.93515 -1.818936,-0.25158 -3.704766,-0.0633 -5.416363,0.60175 -0.975471,0.37901 -1.887438,0.9074 -2.75,1.5"
         style="fill:url(#radialGradient29032);fill-opacity:1;stroke:none" /></clipPath><linearGradient
       id="linearGradient29336-6"><stop
         id="stop29338-1"
         offset="0"
         style="stop-color:#646464;stop-opacity:0" /><stop
         style="stop-color:#646464;stop-opacity:0.5825243"
         offset="0.30628255"
         id="stop29344-7" /><stop
         id="stop29354-5"
         offset="0.47000006"
         style="stop-color:#646464;stop-opacity:1" /><stop
         style="stop-color:#646464;stop-opacity:0.25728154"
         offset="0.72834015"
         id="stop29356-3" /><stop
         id="stop29340-6"
         offset="1"
         style="stop-color:#646464;stop-opacity:0;" /></linearGradient><inkscape:path-effect
       is_visible="true"
       id="path-effect29455-3"
       effect="spiro" /><linearGradient
       id="linearGradient29477-3"><stop
         id="stop29479-5"
         offset="0"
         style="stop-color:#757574;stop-opacity:0" /><stop
         style="stop-color:#757574;stop-opacity:1;"
         offset="0.26291031"
         id="stop29487-5" /><stop
         style="stop-color:#757574;stop-opacity:1;"
         offset="0.5"
         id="stop29485-0" /><stop
         id="stop29481-3"
         offset="1"
         style="stop-color:#757574;stop-opacity:0" /></linearGradient><linearGradient
       id="linearGradient28469-0"><stop
         style="stop-color:#d2940a;stop-opacity:1"
         offset="0"
         id="stop28479-4" /><stop
         style="stop-color:#d89c08;stop-opacity:1"
         offset="0.75143719"
         id="stop28477-2" /><stop
         id="stop28485-7"
         offset="0.86579126"
         style="stop-color:#b67e07;stop-opacity:1;" /><stop
         id="stop28473-1"
         offset="1"
         style="stop-color:#946106;stop-opacity:1" /></linearGradient><inkscape:path-effect
       is_visible="true"
       id="path-effect28463-4"
       effect="spiro" /><inkscape:path-effect
       is_visible="true"
       id="path-effect28489-4"
       effect="spiro" /><inkscape:path-effect
       is_visible="true"
       id="path-effect28273-54-7"
       effect="spiro" /><linearGradient
       id="linearGradient28275-8"><stop
         id="stop28277-1"
         offset="0"
         style="stop-color:#ad780a;stop-opacity:1" /><stop
         style="stop-color:#d89e08;stop-opacity:1"
         offset="0.11972899"
         id="stop28291-9" /><stop
         style="stop-color:#edb80b;stop-opacity:1"
         offset="0.25514477"
         id="stop28289-6" /><stop
         style="stop-color:#ebc80d;stop-opacity:1"
         offset="0.39194193"
         id="stop28287-6" /><stop
         style="stop-color:#f5d838;stop-opacity:1"
         offset="0.52741116"
         id="stop28285-7" /><stop
         style="stop-color:#f6d811;stop-opacity:1"
         offset="0.76906693"
         id="stop28283-7" /><stop
         id="stop28279-5"
         offset="1"
         style="stop-color:#f5cd31;stop-opacity:1" /></linearGradient><inkscape:path-effect
       is_visible="true"
       id="path-effect28273-44"
       effect="spiro" /><inkscape:path-effect
       is_visible="true"
       id="path-effect28384-7"
       effect="spiro" /><linearGradient
       id="linearGradient29529-6"><stop
         id="stop29531-0"
         offset="0"
         style="stop-color:#3a2903;stop-opacity:1;" /><stop
         style="stop-color:#735208;stop-opacity:1"
         offset="0.55472803"
         id="stop29539-7" /><stop
         id="stop29533-8"
         offset="1"
         style="stop-color:#ac8c04;stop-opacity:1" /></linearGradient><inkscape:path-effect
       is_visible="true"
       id="path-effect29553-7"
       effect="spiro" /><clipPath
       id="clipPath29644-8"
       clipPathUnits="userSpaceOnUse"><path
         sodipodi:nodetypes="zzzzzzz"
         inkscape:connector-curvature="0"
         inkscape:original-d="m 54.232441,122.36218 c -3.79199,4.78949 -8.5176,11.69104 -8.19273,17.25 0.32487,5.55896 3.86025,13.93486 8.37542,16 4.51517,2.06514 5.75436,0.0125 8.32902,-2.5 2.57466,-2.51247 3.85871,-7.34762 4.00585,-12.25 0.14713,-4.90238 -3.03534,-11.91949 -5.43855,-15.25 -2.40321,-3.33051 -3.28702,-8.03949 -7.07901,-3.25 z"
         id="path29646-8"
         d="m 54.232441,122.36218 c -1.780966,0.097 -3.484616,0.91899 -4.787851,2.1367 -1.303235,1.21771 -2.221372,2.81176 -2.786181,4.50357 -1.129618,3.38363 -0.875481,7.05177 -0.618698,10.60973 0.23251,3.22162 0.470404,6.50533 1.676785,9.50158 0.60319,1.49813 1.450247,2.91021 2.580338,4.06395 1.130092,1.15374 2.551736,2.04189 4.118297,2.43447 1.468838,0.36809 3.038161,0.29183 4.482784,-0.16209 1.444623,-0.45391 2.763917,-1.27887 3.846236,-2.33791 1.57904,-1.54507 2.643262,-3.5662 3.253449,-5.68947 0.610186,-2.12328 0.784157,-4.35155 0.752401,-6.56053 -0.03974,-2.76435 -0.400909,-5.53851 -1.265755,-8.16439 -0.864846,-2.62588 -2.245742,-5.10327 -4.172795,-7.08561 -0.933308,-0.96009 -1.997766,-1.80513 -3.198586,-2.39747 -1.200819,-0.59233 -2.54344,-0.92535 -3.880424,-0.85253"
         style="fill:url(#radialGradient29648);fill-opacity:1;stroke:none" /></clipPath><inkscape:path-effect
       is_visible="true"
       id="path-effect29707-7-6"
       effect="spiro" /><clipPath
       clipPathUnits="userSpaceOnUse"
       id="clipPath14656-7"><path
         sodipodi:nodetypes="aaaaassssaaaaaa"
         inkscape:connector-curvature="0"
         d="m 304.84727,225.44951 c 6.01627,4.92338 9.77707,12.317 10.94319,20.00305 1.8254,12.03148 -2.34636,24.07488 -6.44591,35.53273 -0.81749,2.28481 -1.63978,4.59033 -1.96473,6.99513 -0.32495,2.4048 -0.11897,4.94825 1.02948,7.08594 1.30279,2.42497 3.73227,4.12469 6.36677,4.92292 2.58877,0.78438 5.39365,0.76103 8.01466,0.0922 2.62101,-0.66882 5.06097,-1.96774 7.18716,-3.63996 5.48002,-4.30997 8.75799,-10.98552 10.01043,-17.84394 1.25243,-6.85841 0.63908,-13.92879 -0.551,-20.7983 -1.62313,-9.36916 -4.30898,-18.53961 -7.74003,-27.40773 -2.51766,-6.50732 -5.46794,-12.91081 -9.61753,-18.52016 -4.04611,-5.46946 -9.16208,-10.08954 -13.10336,-15.63502 -2.73209,-3.84412 -4.89983,-8.13097 -8.1917,-11.50812 -1.64594,-1.68858 -3.57654,-3.13527 -5.76975,-4.00143 -2.19321,-0.86616 -4.66356,-1.12446 -6.93254,-0.48249 -1.50468,0.42573 -2.89193,1.23739 -4.03791,2.30136 -1.14598,1.06397 -2.05268,2.37637 -2.69275,3.80312 -1.28015,2.85349 -1.47719,6.11241 -0.96512,9.1977 0.66114,3.98343 2.44407,7.69333 4.46569,11.18873 2.27396,3.93169 4.918,7.71926 8.38442,10.65407 3.5985,3.04664 7.96161,5.07413 11.61053,8.0602"
         id="path14658-9"
         inkscape:original-d="m 304.84727,225.44951 c 5.05628,5.63479 9.72833,12.47181 10.94319,20.00305 1.91724,11.88535 -4.97006,23.58228 -6.44591,35.53273 -0.57645,4.66766 -2.84839,9.7988 -0.93525,14.08107 1.10334,2.46967 3.76154,4.35176 6.36677,4.92292 5.08221,1.1142 11.95719,2.41291 15.20182,-3.54776 6.07775,-11.16533 10.5961,-26.78641 9.45943,-38.64224 -0.906,-9.44981 -3.86858,-18.61978 -7.74003,-27.40773 -2.817,-6.39442 -6.14704,-12.5833 -9.61753,-18.52016 -3.44146,-5.88721 -8.20051,-10.94245 -13.10336,-15.63502 -6.34842,-6.07614 -12.40311,-17.98386 -20.89399,-15.99204 -5.48499,1.28669 -7.45029,9.57719 -7.69578,15.30218 -0.17245,4.02188 2.46425,7.71677 4.46569,11.18873 2.26238,3.92465 5.10447,7.56255 8.38442,10.65407 3.43735,3.23988 8.4511,4.53927 11.61053,8.0602 z"
         style="fill:none;stroke:#c17d11;stroke-width:1px;stroke-linecap:butt;stroke-linejoin:miter;stroke-opacity:1" /></clipPath><inkscape:path-effect
       is_visible="true"
       id="path-effect4500-7"
       effect="spiro" /><inkscape:path-effect
       is_visible="true"
       id="path-effect4582-3"
       effect="spiro" /><inkscape:path-effect
       effect="spiro"
       id="path-effect14300-7"
       is_visible="true" /><clipPath
       clipPathUnits="userSpaceOnUse"
       id="clipPath14489-3"><path
         style="fill:url(#linearGradient14493);fill-opacity:1;stroke:none"
         d="m 516.00562,331.8756 c -0.6714,1.71905 -1.62682,3.32679 -2.81579,4.73826 -2.6238,3.11482 -6.268,5.17039 -9.89648,7.01985 -6.1886,3.15437 -12.60169,5.92177 -18.41964,9.71654 -3.89802,2.54249 -7.4959,5.52671 -10.86016,8.74238 -2.87719,2.75012 -5.60582,5.68745 -8.83247,8.01771 -3.25567,2.35122 -7.01915,4.05426 -10.99061,4.6502 -4.83026,0.72481 -9.82134,-0.21289 -14.29898,-2.16416 -3.13754,-1.36728 -6.15569,-3.3229 -7.96301,-6.22931 -1.81425,-2.91754 -2.22807,-6.48813 -2.23266,-9.92375 -0.008,-6.07666 1.11824,-12.09004 2.17848,-18.07349 0.88097,-4.97177 1.71949,-9.95483 2.26013,-14.97502 0.98337,-9.13118 0.9763,-18.35278 0.3199,-27.51327 -0.10993,-1.53416 -0.23754,-3.0832 -0.008,-4.60412 0.22922,-1.52092 0.85475,-3.0367 2.02069,-4.03986 1.07696,-0.9266 2.52093,-1.33598 3.93947,-1.4145 1.41854,-0.0785 2.83404,0.14655 4.23982,0.35197 3.31254,0.48405 6.65159,0.8649 9.88917,1.71656 2.04284,0.53738 4.03315,1.25925 6.0722,1.81081 3.40258,0.92039 6.96639,1.36144 10.46739,0.95192 3.76917,-0.44089 7.42987,-1.85678 11.22363,-1.76474 1.55658,0.0378 3.1015,0.33171 4.58649,0.79985 1.51539,0.47772 3.00914,1.16182 4.12281,2.29512 0.84639,0.8613 1.43579,1.94539 1.87872,3.06879 0.65982,1.67352 1.01492,3.457 1.16703,5.24945 0.13475,1.58788 0.11343,3.19441 0.41433,4.75933 0.49503,2.57458 1.84746,4.92305 3.52848,6.93494 1.68102,2.01189 3.68982,3.72048 5.69641,5.40783 1.99908,1.68103 4.0106,3.35469 6.16708,4.82839 1.0121,0.69165 2.05642,1.33949 3.01736,2.10062 0.96094,0.76113 1.84466,1.6468 2.44543,2.71535 0.81492,1.44944 1.06377,3.2077 0.68307,4.82635 h 2e-5"
         id="path14491-6"
         inkscape:connector-curvature="0"
         sodipodi:nodetypes="aaaaaaaaaaaaaaaaaaaaaaaacscaa"
         inkscape:original-d="m 516.00562,331.8756 c 0.90859,1.59687 -1.57016,3.38773 -2.81579,4.73826 -2.74207,2.97299 -6.45099,4.90178 -9.89648,7.01985 -5.91373,3.63539 -12.61918,5.90302 -18.41964,9.71654 -3.88318,2.553 -7.32809,5.72221 -10.86016,8.74238 -3.0221,2.58411 -5.48201,5.87643 -8.83247,8.01771 -3.3519,2.1422 -7.0437,4.15414 -10.99061,4.6502 -4.78298,0.60114 -9.87221,-0.25577 -14.29898,-2.16416 -3.0947,-1.33413 -6.16113,-3.38144 -7.96301,-6.22931 -1.81288,-2.86525 -2.06093,-6.5375 -2.23266,-9.92375 -0.30734,-6.06031 1.36252,-12.0605 2.17848,-18.07349 0.67882,-5.00236 1.85312,-9.94325 2.26013,-14.97502 0.73946,-9.14185 -0.7797,-18.40771 0.3199,-27.51327 0.35468,-2.93704 -0.181,-6.65876 2.01238,-8.64398 2.0384,-1.84494 5.43058,-1.1212 8.17929,-1.06253 3.34492,0.0714 6.63224,0.95108 9.88917,1.71656 2.05612,0.48325 3.99816,1.41138 6.0722,1.81081 3.44031,0.66255 6.96573,1.06623 10.46739,0.95192 3.78516,-0.12356 7.43659,-1.79636 11.22363,-1.76474 1.55185,0.013 3.12359,0.28186 4.58649,0.79985 1.48266,0.52499 2.98786,1.20618 4.12281,2.29512 0.86547,0.83038 1.42933,1.95676 1.87872,3.06879 0.67163,1.66196 0.8942,3.4778 1.16703,5.24945 0.24238,1.57389 -0.1531,3.27141 0.41433,4.75933 1.83023,4.79924 5.57666,8.72712 9.22489,12.34277 1.74278,1.93455 4.03041,3.53404 6.16708,4.82839 2.26886,1.37444 4.3675,2.44991 5.46279,4.81597 0.65901,1.48517 -0.54371,3.76097 0.68307,4.82635 z" /></clipPath><inkscape:path-effect
       effect="spiro"
       id="path-effect14300-2-7"
       is_visible="true" /><clipPath
       clipPathUnits="userSpaceOnUse"
       id="clipPath14481-1"><path
         style="fill:url(#linearGradient14485);fill-opacity:1;stroke:none"
         d="m 516.00562,331.8756 c -0.6714,1.71905 -1.62682,3.32679 -2.81579,4.73826 -2.6238,3.11482 -6.268,5.17039 -9.89648,7.01985 -6.1886,3.15437 -12.60169,5.92177 -18.41964,9.71654 -3.89802,2.54249 -7.4959,5.52671 -10.86016,8.74238 -2.87719,2.75012 -5.60582,5.68745 -8.83247,8.01771 -3.25567,2.35122 -7.01915,4.05426 -10.99061,4.6502 -4.83026,0.72481 -9.82134,-0.21289 -14.29898,-2.16416 -3.13754,-1.36728 -6.15569,-3.3229 -7.96301,-6.22931 -1.81425,-2.91754 -2.22807,-6.48813 -2.23266,-9.92375 -0.008,-6.07666 1.11824,-12.09004 2.17848,-18.07349 0.88097,-4.97177 1.71949,-9.95483 2.26013,-14.97502 0.98337,-9.13118 0.9763,-18.35278 0.3199,-27.51327 -0.10993,-1.53416 -0.23754,-3.0832 -0.008,-4.60412 0.22922,-1.52092 0.85475,-3.0367 2.02069,-4.03986 1.07696,-0.9266 2.52093,-1.33598 3.93947,-1.4145 1.41854,-0.0785 2.83404,0.14655 4.23982,0.35197 3.31254,0.48405 6.65159,0.8649 9.88917,1.71656 2.04284,0.53738 4.03315,1.25925 6.0722,1.81081 3.40258,0.92039 6.96639,1.36144 10.46739,0.95192 3.76917,-0.44089 7.42987,-1.85678 11.22363,-1.76474 1.55658,0.0378 3.1015,0.33171 4.58649,0.79985 1.51539,0.47772 3.00914,1.16182 4.12281,2.29512 0.84639,0.8613 1.43579,1.94539 1.87872,3.06879 0.65982,1.67352 1.01492,3.457 1.16703,5.24945 0.13475,1.58788 0.11343,3.19441 0.41433,4.75933 0.49503,2.57458 1.84746,4.92305 3.52848,6.93494 1.68102,2.01189 3.68982,3.72048 5.69641,5.40783 1.99908,1.68103 4.0106,3.35469 6.16708,4.82839 1.0121,0.69165 2.05642,1.33949 3.01736,2.10062 0.96094,0.76113 1.84466,1.6468 2.44543,2.71535 0.81492,1.44944 1.06377,3.2077 0.68307,4.82635 h 2e-5"
         id="path14483-3"
         inkscape:connector-curvature="0"
         sodipodi:nodetypes="aaaaaaaaaaaaaaaaaaaaaaaacscaa"
         inkscape:original-d="m 516.00562,331.8756 c 0.90859,1.59687 -1.57016,3.38773 -2.81579,4.73826 -2.74207,2.97299 -6.45099,4.90178 -9.89648,7.01985 -5.91373,3.63539 -12.61918,5.90302 -18.41964,9.71654 -3.88318,2.553 -7.32809,5.72221 -10.86016,8.74238 -3.0221,2.58411 -5.48201,5.87643 -8.83247,8.01771 -3.3519,2.1422 -7.0437,4.15414 -10.99061,4.6502 -4.78298,0.60114 -9.87221,-0.25577 -14.29898,-2.16416 -3.0947,-1.33413 -6.16113,-3.38144 -7.96301,-6.22931 -1.81288,-2.86525 -2.06093,-6.5375 -2.23266,-9.92375 -0.30734,-6.06031 1.36252,-12.0605 2.17848,-18.07349 0.67882,-5.00236 1.85312,-9.94325 2.26013,-14.97502 0.73946,-9.14185 -0.7797,-18.40771 0.3199,-27.51327 0.35468,-2.93704 -0.181,-6.65876 2.01238,-8.64398 2.0384,-1.84494 5.43058,-1.1212 8.17929,-1.06253 3.34492,0.0714 6.63224,0.95108 9.88917,1.71656 2.05612,0.48325 3.99816,1.41138 6.0722,1.81081 3.44031,0.66255 6.96573,1.06623 10.46739,0.95192 3.78516,-0.12356 7.43659,-1.79636 11.22363,-1.76474 1.55185,0.013 3.12359,0.28186 4.58649,0.79985 1.48266,0.52499 2.98786,1.20618 4.12281,2.29512 0.86547,0.83038 1.42933,1.95676 1.87872,3.06879 0.67163,1.66196 0.8942,3.4778 1.16703,5.24945 0.24238,1.57389 -0.1531,3.27141 0.41433,4.75933 1.83023,4.79924 5.57666,8.72712 9.22489,12.34277 1.74278,1.93455 4.03041,3.53404 6.16708,4.82839 2.26886,1.37444 4.3675,2.44991 5.46279,4.81597 0.65901,1.48517 -0.54371,3.76097 0.68307,4.82635 z" /></clipPath><inkscape:path-effect
       effect="spiro"
       id="path-effect14300-2-2-0"
       is_visible="true" /><clipPath
       clipPathUnits="userSpaceOnUse"
       id="clipPath14473-5"><path
         style="fill:url(#linearGradient14477);fill-opacity:1;stroke:none"
         d="m 511.82669,331.89986 c -0.60617,1.40358 -1.44178,2.70776 -2.46357,3.84504 -2.32524,2.58805 -5.50706,4.22246 -8.65855,5.69652 -5.42045,2.53534 -11.00071,4.7788 -16.11556,7.88485 -3.38301,2.05437 -6.53696,4.47221 -9.50169,7.09434 -2.52461,2.23286 -4.92977,4.6271 -7.72763,6.50627 -2.88313,1.93644 -6.17534,3.29888 -9.61582,3.77358 -4.21817,0.58201 -8.55335,-0.18335 -12.51035,-1.75619 -2.7091,-1.07682 -5.36625,-2.6185 -6.96693,-5.05501 -1.53813,-2.3413 -1.9333,-5.25173 -1.95338,-8.053 -0.0354,-4.93859 0.96501,-9.81816 1.90598,-14.66641 0.78215,-4.02995 1.52682,-8.0717 1.97741,-12.15204 0.81784,-7.40607 0.66114,-14.88536 0.27989,-22.32668 -0.064,-1.24906 -0.13361,-2.5105 0.0789,-3.74301 0.21256,-1.23251 0.73646,-2.45247 1.68171,-3.27147 0.93914,-0.8137 2.20952,-1.15942 3.45104,-1.2115 1.24152,-0.0521 2.47642,0.16381 3.70512,0.34927 2.88969,0.43617 5.81087,0.7091 8.65215,1.39297 1.78651,0.43 3.53091,1.02011 5.31265,1.46945 2.98632,0.75312 6.09645,1.10709 9.15804,0.77247 3.2941,-0.36004 6.50688,-1.50957 9.81969,-1.43207 1.35838,0.0318 2.70755,0.27142 4.01277,0.64907 1.31265,0.3798 2.61744,0.9202 3.6071,1.86246 0.72535,0.69061 1.25006,1.56936 1.64371,2.49029 0.57625,1.34814 0.88626,2.79994 1.02105,4.25986 0.11897,1.28855 0.10468,2.59405 0.36251,3.86214 0.4369,2.14878 1.63966,4.08139 3.11506,5.70353 1.4754,1.62214 3.22406,2.96752 4.9559,4.31247 1.75634,1.36398 3.50975,2.7398 5.39565,3.91818 0.88228,0.55128 1.79349,1.05932 2.63473,1.67142 0.84123,0.61209 1.61878,1.33907 2.14473,2.23668 0.68386,1.16711 0.90229,2.59857 0.59763,3.91652 h 2e-5"
         id="path14475-9"
         inkscape:connector-curvature="0"
         sodipodi:nodetypes="aaaaaaaaaaaaaaaaaaaaaaaacscaa"
         inkscape:original-d="m 511.82669,331.89986 c 0.79493,1.29584 -1.37375,2.7491 -2.46357,3.84504 -2.39907,2.41255 -5.64405,3.97773 -8.65855,5.69652 -5.17399,2.95008 -11.04067,4.79023 -16.11556,7.88485 -3.39744,2.07173 -6.41144,4.64351 -9.50169,7.09434 -2.64407,2.09697 -4.79627,4.76865 -7.72763,6.50627 -2.93262,1.73837 -6.16262,3.37103 -9.61582,3.77358 -4.18468,0.48781 -8.63731,-0.20756 -12.51035,-1.75619 -2.70759,-1.08263 -5.39044,-2.744 -6.96693,-5.05501 -1.58611,-2.32511 -1.80313,-5.3051 -1.95338,-8.053 -0.2689,-4.91787 1.19208,-9.78694 1.90598,-14.66641 0.59391,-4.05935 1.62131,-8.06882 1.97741,-12.15204 0.64696,-7.4185 -0.68217,-14.93763 0.27989,-22.32668 0.31031,-2.38337 -0.15836,-5.4035 1.76065,-7.01448 1.78342,-1.49715 4.75128,-0.90984 7.15616,-0.86223 2.92651,0.0579 5.80263,0.77179 8.65215,1.39297 1.79893,0.39215 3.49804,1.14531 5.31265,1.46945 3.00996,0.53765 6.0944,0.86523 9.15804,0.77247 3.31168,-0.10027 6.50636,-1.45773 9.81969,-1.43207 1.35773,0.0105 2.73287,0.22873 4.01277,0.64907 1.2972,0.42602 2.61412,0.9788 3.6071,1.86246 0.75721,0.67384 1.25054,1.58789 1.64371,2.49029 0.58762,1.34866 0.78235,2.82219 1.02105,4.25986 0.21206,1.27719 -0.13395,2.65471 0.36251,3.86214 1.60129,3.89452 4.87908,7.08195 8.07096,10.016 1.52478,1.56986 3.52626,2.86783 5.39565,3.91818 1.98506,1.11534 3.82118,1.98807 4.77946,3.9081 0.57658,1.2052 -0.47569,3.05198 0.59763,3.91652 z" /></clipPath><linearGradient
       id="linearGradient14518-6"><stop
         id="stop14540-0"
         offset="0"
         style="stop-color:#110800;stop-opacity:1;" /><stop
         style="stop-color:#a65a00;stop-opacity:0.80000001;"
         offset="0.59066743"
         id="stop14542-5" /><stop
         style="stop-color:#ff921e;stop-opacity:0;"
         offset="1"
         id="stop14522-4" /></linearGradient><inkscape:path-effect
       is_visible="true"
       id="path-effect29716-0-0"
       effect="spiro" /><inkscape:path-effect
       is_visible="true"
       id="path-effect29716-0-8-3"
       effect="spiro" /><inkscape:path-effect
       is_visible="true"
       id="path-effect29716-6-1"
       effect="spiro" /><clipPath
       clipPathUnits="userSpaceOnUse"
       id="clipPath14822-9"><path
         sodipodi:nodetypes="aaaasssaccaa"
         inkscape:connector-curvature="0"
         d="m 386.1875,285.32775 c -0.40516,-1.10369 -1.11845,-2.08156 -1.9907,-2.86987 -0.87226,-0.78832 -1.90049,-1.39229 -2.98278,-1.85155 -2.16459,-0.91852 -4.52053,-1.26149 -6.83152,-1.69556 -2.17919,-0.40931 -4.34179,-0.90631 -6.52782,-1.27734 -2.27136,-0.38551 -4.6179,-0.63213 -6.8653,-0.1253 -1.96583,0.44333 -3.7845,1.45879 -5.27172,2.81864 -1.48723,1.35984 -2.64911,3.0564 -3.48499,4.89007 -1.47218,3.22952 -1.93451,6.86503 -1.65394,10.40316 0.20882,2.63325 0.87532,5.34594 2.60877,7.33912 1.40065,1.61052 3.38733,2.61526 5.43398,3.22092 3.52502,1.04316 7.36663,0.98822 10.86038,-0.1553 5.76689,-1.93113 10.87568,-5.77387 14.33034,-10.77903 1.13861,-1.64963 2.11217,-3.44809 2.5532,-5.4034 0.33597,-1.48955 0.34831,-3.08112 -0.1779,-4.51456"
         id="path14824-1"
         inkscape:original-d="m 386.1875,285.32775 c -2.36571,-3.81321 -7.59294,-4.9003 -11.805,-6.41698 -2.08672,-0.75138 -4.32322,-1.04333 -6.52782,-1.27734 -2.27612,-0.2416 -4.71593,-0.91505 -6.8653,-0.1253 -3.64566,1.33955 -7.24986,3.80684 -8.75671,7.70871 -1.13743,2.94527 -1.80122,7.05909 -1.65394,10.40316 0.13075,2.96891 0.9633,5.07273 2.60877,7.33912 1.08803,1.49859 3.40096,2.67896 5.43398,3.22092 3.49923,0.93284 7.37483,0.82779 10.86038,-0.1553 5.98587,-2.2615 11.09272,-5.76885 14.33034,-10.77903 1.07459,-1.67639 2.15539,-3.45031 2.5532,-5.4034 0.30053,-1.4755 0.61519,-3.23621 -0.1779,-4.51456 z"
         style="fill:none;stroke:#ce5c00;stroke-width:1px;stroke-linecap:butt;stroke-linejoin:miter;stroke-opacity:1" /></clipPath><clipPath
       clipPathUnits="userSpaceOnUse"
       id="clipPath14822-2-4"><path
         sodipodi:nodetypes="aaaasssaccaa"
         inkscape:connector-curvature="0"
         d="m 386.1875,285.32775 c -0.40516,-1.10369 -1.11845,-2.08156 -1.9907,-2.86987 -0.87226,-0.78832 -1.90049,-1.39229 -2.98278,-1.85155 -2.16459,-0.91852 -4.52053,-1.26149 -6.83152,-1.69556 -2.17919,-0.40931 -4.34179,-0.90631 -6.52782,-1.27734 -2.27136,-0.38551 -4.6179,-0.63213 -6.8653,-0.1253 -1.96583,0.44333 -3.7845,1.45879 -5.27172,2.81864 -1.48723,1.35984 -2.64911,3.0564 -3.48499,4.89007 -1.47218,3.22952 -1.93451,6.86503 -1.65394,10.40316 0.20882,2.63325 0.87532,5.34594 2.60877,7.33912 1.40065,1.61052 3.38733,2.61526 5.43398,3.22092 3.52502,1.04316 7.36663,0.98822 10.86038,-0.1553 5.76689,-1.93113 10.87568,-5.77387 14.33034,-10.77903 1.13861,-1.64963 2.11217,-3.44809 2.5532,-5.4034 0.33597,-1.48955 0.34831,-3.08112 -0.1779,-4.51456"
         id="path14824-6-5"
         inkscape:original-d="m 386.1875,285.32775 c -2.36571,-3.81321 -7.59294,-4.9003 -11.805,-6.41698 -2.08672,-0.75138 -4.32322,-1.04333 -6.52782,-1.27734 -2.27612,-0.2416 -4.71593,-0.91505 -6.8653,-0.1253 -3.64566,1.33955 -7.24986,3.80684 -8.75671,7.70871 -1.13743,2.94527 -1.80122,7.05909 -1.65394,10.40316 0.13075,2.96891 0.9633,5.07273 2.60877,7.33912 1.08803,1.49859 3.40096,2.67896 5.43398,3.22092 3.49923,0.93284 7.37483,0.82779 10.86038,-0.1553 5.98587,-2.2615 11.09272,-5.76885 14.33034,-10.77903 1.07459,-1.67639 2.15539,-3.45031 2.5532,-5.4034 0.30053,-1.4755 0.61519,-3.23621 -0.1779,-4.51456 z"
         style="fill:none;stroke:#ce5c00;stroke-width:1px;stroke-linecap:butt;stroke-linejoin:miter;stroke-opacity:1" /></clipPath><inkscape:path-effect
       effect="spiro"
       id="path-effect14972-2-2"
       is_visible="true" /><inkscape:path-effect
       effect="spiro"
       id="path-effect15017-9"
       is_visible="true" /><clipPath
       clipPathUnits="userSpaceOnUse"
       id="clipPath15031-3"><path
         style="fill:none;stroke:#729fcf;stroke-width:0.125;stroke-linecap:butt;stroke-linejoin:miter;stroke-miterlimit:4;stroke-dasharray:none;stroke-opacity:1"
         d="m 248.06066,184.61218 c -2.60091,3.4397 -5.23338,6.85555 -7.89695,10.24696 -2.83301,3.60715 -5.70116,7.1866 -8.58729,10.75139 -3.54135,4.37407 -7.15155,8.79286 -9.44912,13.93045 -1.97407,4.41422 -2.91014,9.20748 -4.26498,13.84932 -1.53862,5.27153 -3.62627,10.37023 -5.97071,15.33612 -2.1648,4.58539 -4.54978,9.06293 -6.93891,13.53553 -1.73823,3.25407 -3.50515,6.58104 -4.10782,10.22071 -0.47627,2.87632 -0.19849,5.84423 0.53376,8.66626 0.73224,2.82202 1.90964,5.5106 3.23775,8.10601 5.66724,11.07504 14.17003,20.62168 24.24176,27.92472 4.57063,3.31418 9.46669,6.18109 14.60245,8.52595 2.78247,1.27041 5.71355,2.40436 8.77186,2.45744 1.52915,0.0265 3.0741,-0.22544 4.47434,-0.84055 1.40024,-0.6151 2.65068,-1.60373 3.48254,-2.88709 1.02278,-1.5779 1.36992,-3.53829 1.16461,-5.40743 -0.2053,-1.86914 -0.93484,-3.65294 -1.91324,-5.25873 -2.38997,-3.92251 -6.1652,-6.76055 -9.79642,-9.57343 -7.84055,-6.07358 -15.42466,-12.48038 -22.68212,-19.23996 -2.04911,-1.90854 -4.0984,-3.87759 -5.53019,-6.28412 -1.3943,-2.34352 -2.14763,-5.01375 -2.65783,-7.69253 -1.39963,-7.34872 -1.0404,-15.0827 1.45958,-22.13343 0.97802,-2.75834 2.27066,-5.39225 3.51815,-8.03965 2.1622,-4.58855 4.21133,-9.26299 7.04933,-13.46723 3.53268,-5.23334 8.24484,-9.67275 11.15147,-15.27803 2.45457,-4.7335 3.49353,-10.05742 4.36185,-15.31831 0.66531,-4.03089 1.24751,-8.07549 1.74613,-12.13037"
         id="path15033-2"
         inkscape:connector-curvature="0"
         inkscape:original-d="m 248.06066,184.61218 c 0,0 -5.10626,6.34527 -7.89695,10.24696 -2.7907,3.9017 -5.73652,6.64881 -8.58729,10.75139 -2.85076,4.10259 -7.36482,9.43164 -9.44912,13.93045 -2.08429,4.49881 -2.32047,9.0356 -4.26498,13.84932 -1.94451,4.81371 -3.70129,10.64183 -5.97071,15.33612 -2.26943,4.69429 -5.37093,9.68473 -6.93891,13.53553 -1.56799,3.8508 -3.81119,5.72384 -4.10782,10.22071 -0.29663,4.49686 -0.57747,8.31749 3.77151,16.77227 4.34898,8.45478 17.23626,22.00721 24.24176,27.92472 7.00549,5.9175 9.39133,7.22492 14.60245,8.52595 5.21112,1.30104 13.85627,2.9981 16.72874,-1.2702 2.87246,-4.26829 2.27191,-5.96483 -0.74863,-10.66616 -3.02055,-4.70132 -4.82469,-5.30209 -9.79642,-9.57343 -4.97172,-4.27133 -18.63696,-14.87266 -22.68212,-19.23996 -4.04516,-4.36729 -7.10731,-3.41164 -5.53019,-6.28412 1.57712,-2.87249 -2.20738,-4.00856 -2.65783,-7.69253 -0.76361,-6.24511 0.9436,-18.71046 1.45958,-22.13343 0.51598,-3.42296 1.22371,-2.92446 3.51815,-8.03965 2.29444,-5.11519 4.12424,-8.62435 7.04933,-13.46723 2.92509,-4.84289 8.62493,-10.12787 11.15147,-15.27803 2.52654,-5.15017 3.50393,-10.72068 4.36185,-15.31831 0.85792,-4.59763 1.74613,-12.13037 1.74613,-12.13037 z"
         sodipodi:nodetypes="czzzzzzzzzzzzzzzszzzzzc" /></clipPath><clipPath
       clipPathUnits="userSpaceOnUse"
       id="clipPath14186-9"><path
         inkscape:original-d="m 137.57703,281.0191 c 6.32494,-1.3585 11.99755,4.87308 16.86679,9.13228 6.42572,5.62067 -8.54781,26.01622 13.24488,19.8293 5.86081,-1.66388 6.89528,11.31183 10.16415,16.45304 4.09971,6.44793 11.58575,13.6827 13.65231,21.03883 1.58383,5.63779 1.34339,10.90606 -1.62666,15.95302 -3.57124,6.06857 -11.7907,10.42929 -18.78877,11.20919 -5.73056,0.63864 -11.87822,-3.8351 -17.38362,-5.54906 -12.31617,-3.83432 -23.77946,-5.82074 -36.09666,-9.65174 -2.50091,-0.77785 -8.28361,-2.638 -10.96988,-3.42629 -4.51043,-1.3236 -6.46556,-0.99271 -8.72046,-4.76819 -2.68251,-4.49147 0.68051,-9.72669 3.16379,-14.79408 4.06995,-8.30524 1.91195,-17.82603 0.46203,-25.51057 -0.92235,-4.8884 -0.66071,-7.92707 2.7425,-10.79139 4.99476,-4.20385 14.53027,-1.53186 20.35272,-4.08305 5.82246,-2.55119 6.66365,-13.6939 12.93688,-15.04129 z"
         sodipodi:nodetypes="ssssssssssssssss"
         inkscape:connector-curvature="0"
         id="path14188-1"
         d="m 137.57703,281.0191 c 1.59929,-0.66295 3.3982,-0.78361 5.10074,-0.46963 1.70253,0.31398 3.31141,1.04948 4.74342,2.02239 2.86402,1.94583 4.98821,4.77774 7.02263,7.57952 4.67189,6.43406 9.16868,13.00227 13.24488,19.8293 3.30635,5.53766 6.34352,11.25685 10.16415,16.45304 2.49398,3.3919 5.3066,6.53947 7.813,9.92221 2.50639,3.38273 4.72794,7.05586 5.83931,11.11662 1.44411,5.27653 0.88463,11.09291 -1.62666,15.95302 -1.76663,3.41896 -4.47646,6.35228 -7.77242,8.33898 -3.29595,1.9867 -7.17064,3.01444 -11.01635,2.87021 -6.11413,-0.2293 -11.69944,-3.28515 -17.38362,-5.54906 -11.58097,-4.6125 -24.15978,-6.0594 -36.09666,-9.65174 -3.66859,-1.10404 -7.27582,-2.4107 -10.96988,-3.42629 -1.64125,-0.45122 -3.30866,-0.8482 -4.85875,-1.55144 -1.55008,-0.70325 -2.999548,-1.7491 -3.86171,-3.21675 -0.666391,-1.13439 -0.948386,-2.47002 -0.930187,-3.78554 0.0182,-1.31552 0.325889,-2.61453 0.773815,-3.85158 0.895851,-2.47409 2.343262,-4.71374 3.320162,-7.15696 1.59511,-3.98935 1.88169,-8.38839 1.66657,-12.67942 -0.21511,-4.29103 -0.91078,-8.54478 -1.20454,-12.83115 -0.13118,-1.91406 -0.18066,-3.85256 0.18479,-5.73598 0.36545,-1.88343 1.17577,-3.72459 2.55771,-5.05541 1.27406,-1.22693 2.96492,-1.95531 4.69643,-2.31651 1.73151,-0.3612 3.51533,-0.37747 5.28367,-0.33762 1.76833,0.0399 3.54067,0.13425 5.30351,-0.0106 1.76284,-0.14488 3.53347,-0.54055 5.06911,-1.41828 1.45996,-0.83447 2.65433,-2.0745 3.64374,-3.43424 0.9894,-1.35974 1.78909,-2.84573 2.60891,-4.31396 0.81983,-1.46823 1.66834,-2.93151 2.74157,-4.22611 1.07324,-1.2946 2.38923,-2.42304 3.94266,-3.06698"
         style="fill:#402c07;fill-opacity:1;stroke:none" /></clipPath><inkscape:path-effect
       is_visible="true"
       id="path-effect4669-1"
       effect="spiro" /><inkscape:path-effect
       is_visible="true"
       id="path-effect4669-4-3"
       effect="spiro" /><inkscape:path-effect
       effect="spiro"
       id="path-effect29672-0-3"
       is_visible="true" /><inkscape:path-effect
       effect="spiro"
       id="path-effect29678-1-5"
       is_visible="true" /><inkscape:path-effect
       effect="spiro"
       id="path-effect29678-4-6-6"
       is_visible="true" /><inkscape:path-effect
       effect="spiro"
       id="path-effect28714-5-2"
       is_visible="true" /><inkscape:path-effect
       effect="spiro"
       id="path-effect29721-2-9"
       is_visible="true" /><inkscape:path-effect
       effect="spiro"
       id="path-effect28463-8-0-1"
       is_visible="true" /><inkscape:path-effect
       effect="spiro"
       id="path-effect28463-0-7-2"
       is_visible="true" /><inkscape:path-effect
       effect="spiro"
       id="path-effect28797-8-1-3"
       is_visible="true" /><inkscape:path-effect
       effect="spiro"
       id="path-effect28797-81-6"
       is_visible="true" /><inkscape:path-effect
       effect="spiro"
       id="path-effect28273-4-2-0"
       is_visible="true" /><inkscape:path-effect
       effect="spiro"
       id="path-effect28851-0-1"
       is_visible="true" /><inkscape:path-effect
       effect="spiro"
       id="path-effect28881-6-8"
       is_visible="true" /><inkscape:path-effect
       effect="spiro"
       id="path-effect28974-8-2"
       is_visible="true" /><clipPath
       clipPathUnits="userSpaceOnUse"
       id="clipPath29028-5-2"><path
         style="fill:url(#radialGradient29032);fill-opacity:1;stroke:none"
         d="m 85.75,122.36218 c -2.780425,1.91023 -5.110569,4.57487 -6.25,7.75 -1.436029,4.00163 -0.885838,8.48071 0.5,12.5 1.419488,4.11688 3.793788,8.04098 7.37932,10.51234 1.792766,1.23567 3.868091,2.08301 6.030402,2.33859 2.162311,0.25558 4.409274,-0.0949 6.340278,-1.10093 2.35312,-1.22596 4.14782,-3.37278 5.26217,-5.78076 1.11436,-2.40798 1.5888,-5.0701 1.73783,-7.71924 0.18989,-3.37546 -0.14047,-6.80646 -1.25,-10 -1.20527,-3.46909 -3.39005,-6.67055 -6.472754,-8.6666 -1.541351,-0.99803 -3.291947,-1.68356 -5.110883,-1.93515 -1.818936,-0.25158 -3.704766,-0.0633 -5.416363,0.60175 -0.975471,0.37901 -1.887438,0.9074 -2.75,1.5"
         id="path29030-7-8"
         inkscape:original-d="m 85.75,122.36218 c -2.54738,2.12715 -5.20812,4.59907 -6.25,7.75 -1.30914,3.95917 -1.63336,8.91703 0.5,12.5 3.91901,6.58194 12.38353,13.85135 19.75,11.75 4.87452,-1.3905 6.10748,-8.51023 7,-13.5 0.59149,-3.30679 0.59578,-7.19325 -1.25,-10 -3.61233,-5.49303 -10.4265,-9.89357 -17,-10 -1.04403,-0.0169 -1.94852,0.83074 -2.75,1.5 z"
         inkscape:connector-curvature="0"
         sodipodi:nodetypes="aaaaaaaa" /></clipPath><inkscape:path-effect
       effect="spiro"
       id="path-effect29455-3-2"
       is_visible="true" /><inkscape:path-effect
       effect="spiro"
       id="path-effect28463-4-5"
       is_visible="true" /><inkscape:path-effect
       effect="spiro"
       id="path-effect28489-4-0"
       is_visible="true" /><inkscape:path-effect
       effect="spiro"
       id="path-effect28273-54-7-3"
       is_visible="true" /><inkscape:path-effect
       effect="spiro"
       id="path-effect28273-44-6"
       is_visible="true" /><inkscape:path-effect
       effect="spiro"
       id="path-effect28384-7-1"
       is_visible="true" /><inkscape:path-effect
       effect="spiro"
       id="path-effect29553-7-7"
       is_visible="true" /><clipPath
       clipPathUnits="userSpaceOnUse"
       id="clipPath29644-8-6"><path
         style="fill:url(#radialGradient29648);fill-opacity:1;stroke:none"
         d="m 54.232441,122.36218 c -1.780966,0.097 -3.484616,0.91899 -4.787851,2.1367 -1.303235,1.21771 -2.221372,2.81176 -2.786181,4.50357 -1.129618,3.38363 -0.875481,7.05177 -0.618698,10.60973 0.23251,3.22162 0.470404,6.50533 1.676785,9.50158 0.60319,1.49813 1.450247,2.91021 2.580338,4.06395 1.130092,1.15374 2.551736,2.04189 4.118297,2.43447 1.468838,0.36809 3.038161,0.29183 4.482784,-0.16209 1.444623,-0.45391 2.763917,-1.27887 3.846236,-2.33791 1.57904,-1.54507 2.643262,-3.5662 3.253449,-5.68947 0.610186,-2.12328 0.784157,-4.35155 0.752401,-6.56053 -0.03974,-2.76435 -0.400909,-5.53851 -1.265755,-8.16439 -0.864846,-2.62588 -2.245742,-5.10327 -4.172795,-7.08561 -0.933308,-0.96009 -1.997766,-1.80513 -3.198586,-2.39747 -1.200819,-0.59233 -2.54344,-0.92535 -3.880424,-0.85253"
         id="path29646-8-5"
         inkscape:original-d="m 54.232441,122.36218 c -3.79199,4.78949 -8.5176,11.69104 -8.19273,17.25 0.32487,5.55896 3.86025,13.93486 8.37542,16 4.51517,2.06514 5.75436,0.0125 8.32902,-2.5 2.57466,-2.51247 3.85871,-7.34762 4.00585,-12.25 0.14713,-4.90238 -3.03534,-11.91949 -5.43855,-15.25 -2.40321,-3.33051 -3.28702,-8.03949 -7.07901,-3.25 z"
         inkscape:connector-curvature="0"
         sodipodi:nodetypes="zzzzzzz" /></clipPath><inkscape:path-effect
       effect="spiro"
       id="path-effect29707-7-6-6"
       is_visible="true" /><clipPath
       id="clipPath14656-7-9"
       clipPathUnits="userSpaceOnUse"><path
         style="fill:none;stroke:#c17d11;stroke-width:1px;stroke-linecap:butt;stroke-linejoin:miter;stroke-opacity:1"
         inkscape:original-d="m 304.84727,225.44951 c 5.05628,5.63479 9.72833,12.47181 10.94319,20.00305 1.91724,11.88535 -4.97006,23.58228 -6.44591,35.53273 -0.57645,4.66766 -2.84839,9.7988 -0.93525,14.08107 1.10334,2.46967 3.76154,4.35176 6.36677,4.92292 5.08221,1.1142 11.95719,2.41291 15.20182,-3.54776 6.07775,-11.16533 10.5961,-26.78641 9.45943,-38.64224 -0.906,-9.44981 -3.86858,-18.61978 -7.74003,-27.40773 -2.817,-6.39442 -6.14704,-12.5833 -9.61753,-18.52016 -3.44146,-5.88721 -8.20051,-10.94245 -13.10336,-15.63502 -6.34842,-6.07614 -12.40311,-17.98386 -20.89399,-15.99204 -5.48499,1.28669 -7.45029,9.57719 -7.69578,15.30218 -0.17245,4.02188 2.46425,7.71677 4.46569,11.18873 2.26238,3.92465 5.10447,7.56255 8.38442,10.65407 3.43735,3.23988 8.4511,4.53927 11.61053,8.0602 z"
         id="path14658-9-3"
         d="m 304.84727,225.44951 c 6.01627,4.92338 9.77707,12.317 10.94319,20.00305 1.8254,12.03148 -2.34636,24.07488 -6.44591,35.53273 -0.81749,2.28481 -1.63978,4.59033 -1.96473,6.99513 -0.32495,2.4048 -0.11897,4.94825 1.02948,7.08594 1.30279,2.42497 3.73227,4.12469 6.36677,4.92292 2.58877,0.78438 5.39365,0.76103 8.01466,0.0922 2.62101,-0.66882 5.06097,-1.96774 7.18716,-3.63996 5.48002,-4.30997 8.75799,-10.98552 10.01043,-17.84394 1.25243,-6.85841 0.63908,-13.92879 -0.551,-20.7983 -1.62313,-9.36916 -4.30898,-18.53961 -7.74003,-27.40773 -2.51766,-6.50732 -5.46794,-12.91081 -9.61753,-18.52016 -4.04611,-5.46946 -9.16208,-10.08954 -13.10336,-15.63502 -2.73209,-3.84412 -4.89983,-8.13097 -8.1917,-11.50812 -1.64594,-1.68858 -3.57654,-3.13527 -5.76975,-4.00143 -2.19321,-0.86616 -4.66356,-1.12446 -6.93254,-0.48249 -1.50468,0.42573 -2.89193,1.23739 -4.03791,2.30136 -1.14598,1.06397 -2.05268,2.37637 -2.69275,3.80312 -1.28015,2.85349 -1.47719,6.11241 -0.96512,9.1977 0.66114,3.98343 2.44407,7.69333 4.46569,11.18873 2.27396,3.93169 4.918,7.71926 8.38442,10.65407 3.5985,3.04664 7.96161,5.07413 11.61053,8.0602"
         inkscape:connector-curvature="0"
         sodipodi:nodetypes="aaaaassssaaaaaa" /></clipPath><inkscape:path-effect
       effect="spiro"
       id="path-effect4500-7-7"
       is_visible="true" /><inkscape:path-effect
       effect="spiro"
       id="path-effect4582-3-4"
       is_visible="true" /><inkscape:path-effect
       is_visible="true"
       id="path-effect14300-7-5"
       effect="spiro" /><clipPath
       id="clipPath14489-3-2"
       clipPathUnits="userSpaceOnUse"><path
         inkscape:original-d="m 516.00562,331.8756 c 0.90859,1.59687 -1.57016,3.38773 -2.81579,4.73826 -2.74207,2.97299 -6.45099,4.90178 -9.89648,7.01985 -5.91373,3.63539 -12.61918,5.90302 -18.41964,9.71654 -3.88318,2.553 -7.32809,5.72221 -10.86016,8.74238 -3.0221,2.58411 -5.48201,5.87643 -8.83247,8.01771 -3.3519,2.1422 -7.0437,4.15414 -10.99061,4.6502 -4.78298,0.60114 -9.87221,-0.25577 -14.29898,-2.16416 -3.0947,-1.33413 -6.16113,-3.38144 -7.96301,-6.22931 -1.81288,-2.86525 -2.06093,-6.5375 -2.23266,-9.92375 -0.30734,-6.06031 1.36252,-12.0605 2.17848,-18.07349 0.67882,-5.00236 1.85312,-9.94325 2.26013,-14.97502 0.73946,-9.14185 -0.7797,-18.40771 0.3199,-27.51327 0.35468,-2.93704 -0.181,-6.65876 2.01238,-8.64398 2.0384,-1.84494 5.43058,-1.1212 8.17929,-1.06253 3.34492,0.0714 6.63224,0.95108 9.88917,1.71656 2.05612,0.48325 3.99816,1.41138 6.0722,1.81081 3.44031,0.66255 6.96573,1.06623 10.46739,0.95192 3.78516,-0.12356 7.43659,-1.79636 11.22363,-1.76474 1.55185,0.013 3.12359,0.28186 4.58649,0.79985 1.48266,0.52499 2.98786,1.20618 4.12281,2.29512 0.86547,0.83038 1.42933,1.95676 1.87872,3.06879 0.67163,1.66196 0.8942,3.4778 1.16703,5.24945 0.24238,1.57389 -0.1531,3.27141 0.41433,4.75933 1.83023,4.79924 5.57666,8.72712 9.22489,12.34277 1.74278,1.93455 4.03041,3.53404 6.16708,4.82839 2.26886,1.37444 4.3675,2.44991 5.46279,4.81597 0.65901,1.48517 -0.54371,3.76097 0.68307,4.82635 z"
         sodipodi:nodetypes="aaaaaaaaaaaaaaaaaaaaaaaacscaa"
         inkscape:connector-curvature="0"
         id="path14491-6-5"
         d="m 516.00562,331.8756 c -0.6714,1.71905 -1.62682,3.32679 -2.81579,4.73826 -2.6238,3.11482 -6.268,5.17039 -9.89648,7.01985 -6.1886,3.15437 -12.60169,5.92177 -18.41964,9.71654 -3.89802,2.54249 -7.4959,5.52671 -10.86016,8.74238 -2.87719,2.75012 -5.60582,5.68745 -8.83247,8.01771 -3.25567,2.35122 -7.01915,4.05426 -10.99061,4.6502 -4.83026,0.72481 -9.82134,-0.21289 -14.29898,-2.16416 -3.13754,-1.36728 -6.15569,-3.3229 -7.96301,-6.22931 -1.81425,-2.91754 -2.22807,-6.48813 -2.23266,-9.92375 -0.008,-6.07666 1.11824,-12.09004 2.17848,-18.07349 0.88097,-4.97177 1.71949,-9.95483 2.26013,-14.97502 0.98337,-9.13118 0.9763,-18.35278 0.3199,-27.51327 -0.10993,-1.53416 -0.23754,-3.0832 -0.008,-4.60412 0.22922,-1.52092 0.85475,-3.0367 2.02069,-4.03986 1.07696,-0.9266 2.52093,-1.33598 3.93947,-1.4145 1.41854,-0.0785 2.83404,0.14655 4.23982,0.35197 3.31254,0.48405 6.65159,0.8649 9.88917,1.71656 2.04284,0.53738 4.03315,1.25925 6.0722,1.81081 3.40258,0.92039 6.96639,1.36144 10.46739,0.95192 3.76917,-0.44089 7.42987,-1.85678 11.22363,-1.76474 1.55658,0.0378 3.1015,0.33171 4.58649,0.79985 1.51539,0.47772 3.00914,1.16182 4.12281,2.29512 0.84639,0.8613 1.43579,1.94539 1.87872,3.06879 0.65982,1.67352 1.01492,3.457 1.16703,5.24945 0.13475,1.58788 0.11343,3.19441 0.41433,4.75933 0.49503,2.57458 1.84746,4.92305 3.52848,6.93494 1.68102,2.01189 3.68982,3.72048 5.69641,5.40783 1.99908,1.68103 4.0106,3.35469 6.16708,4.82839 1.0121,0.69165 2.05642,1.33949 3.01736,2.10062 0.96094,0.76113 1.84466,1.6468 2.44543,2.71535 0.81492,1.44944 1.06377,3.2077 0.68307,4.82635 l 2e-5,0"
         style="fill:url(#linearGradient14493);fill-opacity:1;stroke:none" /></clipPath><inkscape:path-effect
       is_visible="true"
       id="path-effect14300-2-7-4"
       effect="spiro" /><clipPath
       id="clipPath14481-1-7"
       clipPathUnits="userSpaceOnUse"><path
         inkscape:original-d="m 516.00562,331.8756 c 0.90859,1.59687 -1.57016,3.38773 -2.81579,4.73826 -2.74207,2.97299 -6.45099,4.90178 -9.89648,7.01985 -5.91373,3.63539 -12.61918,5.90302 -18.41964,9.71654 -3.88318,2.553 -7.32809,5.72221 -10.86016,8.74238 -3.0221,2.58411 -5.48201,5.87643 -8.83247,8.01771 -3.3519,2.1422 -7.0437,4.15414 -10.99061,4.6502 -4.78298,0.60114 -9.87221,-0.25577 -14.29898,-2.16416 -3.0947,-1.33413 -6.16113,-3.38144 -7.96301,-6.22931 -1.81288,-2.86525 -2.06093,-6.5375 -2.23266,-9.92375 -0.30734,-6.06031 1.36252,-12.0605 2.17848,-18.07349 0.67882,-5.00236 1.85312,-9.94325 2.26013,-14.97502 0.73946,-9.14185 -0.7797,-18.40771 0.3199,-27.51327 0.35468,-2.93704 -0.181,-6.65876 2.01238,-8.64398 2.0384,-1.84494 5.43058,-1.1212 8.17929,-1.06253 3.34492,0.0714 6.63224,0.95108 9.88917,1.71656 2.05612,0.48325 3.99816,1.41138 6.0722,1.81081 3.44031,0.66255 6.96573,1.06623 10.46739,0.95192 3.78516,-0.12356 7.43659,-1.79636 11.22363,-1.76474 1.55185,0.013 3.12359,0.28186 4.58649,0.79985 1.48266,0.52499 2.98786,1.20618 4.12281,2.29512 0.86547,0.83038 1.42933,1.95676 1.87872,3.06879 0.67163,1.66196 0.8942,3.4778 1.16703,5.24945 0.24238,1.57389 -0.1531,3.27141 0.41433,4.75933 1.83023,4.79924 5.57666,8.72712 9.22489,12.34277 1.74278,1.93455 4.03041,3.53404 6.16708,4.82839 2.26886,1.37444 4.3675,2.44991 5.46279,4.81597 0.65901,1.48517 -0.54371,3.76097 0.68307,4.82635 z"
         sodipodi:nodetypes="aaaaaaaaaaaaaaaaaaaaaaaacscaa"
         inkscape:connector-curvature="0"
         id="path14483-3-4"
         d="m 516.00562,331.8756 c -0.6714,1.71905 -1.62682,3.32679 -2.81579,4.73826 -2.6238,3.11482 -6.268,5.17039 -9.89648,7.01985 -6.1886,3.15437 -12.60169,5.92177 -18.41964,9.71654 -3.89802,2.54249 -7.4959,5.52671 -10.86016,8.74238 -2.87719,2.75012 -5.60582,5.68745 -8.83247,8.01771 -3.25567,2.35122 -7.01915,4.05426 -10.99061,4.6502 -4.83026,0.72481 -9.82134,-0.21289 -14.29898,-2.16416 -3.13754,-1.36728 -6.15569,-3.3229 -7.96301,-6.22931 -1.81425,-2.91754 -2.22807,-6.48813 -2.23266,-9.92375 -0.008,-6.07666 1.11824,-12.09004 2.17848,-18.07349 0.88097,-4.97177 1.71949,-9.95483 2.26013,-14.97502 0.98337,-9.13118 0.9763,-18.35278 0.3199,-27.51327 -0.10993,-1.53416 -0.23754,-3.0832 -0.008,-4.60412 0.22922,-1.52092 0.85475,-3.0367 2.02069,-4.03986 1.07696,-0.9266 2.52093,-1.33598 3.93947,-1.4145 1.41854,-0.0785 2.83404,0.14655 4.23982,0.35197 3.31254,0.48405 6.65159,0.8649 9.88917,1.71656 2.04284,0.53738 4.03315,1.25925 6.0722,1.81081 3.40258,0.92039 6.96639,1.36144 10.46739,0.95192 3.76917,-0.44089 7.42987,-1.85678 11.22363,-1.76474 1.55658,0.0378 3.1015,0.33171 4.58649,0.79985 1.51539,0.47772 3.00914,1.16182 4.12281,2.29512 0.84639,0.8613 1.43579,1.94539 1.87872,3.06879 0.65982,1.67352 1.01492,3.457 1.16703,5.24945 0.13475,1.58788 0.11343,3.19441 0.41433,4.75933 0.49503,2.57458 1.84746,4.92305 3.52848,6.93494 1.68102,2.01189 3.68982,3.72048 5.69641,5.40783 1.99908,1.68103 4.0106,3.35469 6.16708,4.82839 1.0121,0.69165 2.05642,1.33949 3.01736,2.10062 0.96094,0.76113 1.84466,1.6468 2.44543,2.71535 0.81492,1.44944 1.06377,3.2077 0.68307,4.82635 l 2e-5,0"
         style="fill:url(#linearGradient14485);fill-opacity:1;stroke:none" /></clipPath><inkscape:path-effect
       is_visible="true"
       id="path-effect14300-2-2-0-4"
       effect="spiro" /><clipPath
       id="clipPath14473-5-3"
       clipPathUnits="userSpaceOnUse"><path
         inkscape:original-d="m 511.82669,331.89986 c 0.79493,1.29584 -1.37375,2.7491 -2.46357,3.84504 -2.39907,2.41255 -5.64405,3.97773 -8.65855,5.69652 -5.17399,2.95008 -11.04067,4.79023 -16.11556,7.88485 -3.39744,2.07173 -6.41144,4.64351 -9.50169,7.09434 -2.64407,2.09697 -4.79627,4.76865 -7.72763,6.50627 -2.93262,1.73837 -6.16262,3.37103 -9.61582,3.77358 -4.18468,0.48781 -8.63731,-0.20756 -12.51035,-1.75619 -2.70759,-1.08263 -5.39044,-2.744 -6.96693,-5.05501 -1.58611,-2.32511 -1.80313,-5.3051 -1.95338,-8.053 -0.2689,-4.91787 1.19208,-9.78694 1.90598,-14.66641 0.59391,-4.05935 1.62131,-8.06882 1.97741,-12.15204 0.64696,-7.4185 -0.68217,-14.93763 0.27989,-22.32668 0.31031,-2.38337 -0.15836,-5.4035 1.76065,-7.01448 1.78342,-1.49715 4.75128,-0.90984 7.15616,-0.86223 2.92651,0.0579 5.80263,0.77179 8.65215,1.39297 1.79893,0.39215 3.49804,1.14531 5.31265,1.46945 3.00996,0.53765 6.0944,0.86523 9.15804,0.77247 3.31168,-0.10027 6.50636,-1.45773 9.81969,-1.43207 1.35773,0.0105 2.73287,0.22873 4.01277,0.64907 1.2972,0.42602 2.61412,0.9788 3.6071,1.86246 0.75721,0.67384 1.25054,1.58789 1.64371,2.49029 0.58762,1.34866 0.78235,2.82219 1.02105,4.25986 0.21206,1.27719 -0.13395,2.65471 0.36251,3.86214 1.60129,3.89452 4.87908,7.08195 8.07096,10.016 1.52478,1.56986 3.52626,2.86783 5.39565,3.91818 1.98506,1.11534 3.82118,1.98807 4.77946,3.9081 0.57658,1.2052 -0.47569,3.05198 0.59763,3.91652 z"
         sodipodi:nodetypes="aaaaaaaaaaaaaaaaaaaaaaaacscaa"
         inkscape:connector-curvature="0"
         id="path14475-9-0"
         d="m 511.82669,331.89986 c -0.60617,1.40358 -1.44178,2.70776 -2.46357,3.84504 -2.32524,2.58805 -5.50706,4.22246 -8.65855,5.69652 -5.42045,2.53534 -11.00071,4.7788 -16.11556,7.88485 -3.38301,2.05437 -6.53696,4.47221 -9.50169,7.09434 -2.52461,2.23286 -4.92977,4.6271 -7.72763,6.50627 -2.88313,1.93644 -6.17534,3.29888 -9.61582,3.77358 -4.21817,0.58201 -8.55335,-0.18335 -12.51035,-1.75619 -2.7091,-1.07682 -5.36625,-2.6185 -6.96693,-5.05501 -1.53813,-2.3413 -1.9333,-5.25173 -1.95338,-8.053 -0.0354,-4.93859 0.96501,-9.81816 1.90598,-14.66641 0.78215,-4.02995 1.52682,-8.0717 1.97741,-12.15204 0.81784,-7.40607 0.66114,-14.88536 0.27989,-22.32668 -0.064,-1.24906 -0.13361,-2.5105 0.0789,-3.74301 0.21256,-1.23251 0.73646,-2.45247 1.68171,-3.27147 0.93914,-0.8137 2.20952,-1.15942 3.45104,-1.2115 1.24152,-0.0521 2.47642,0.16381 3.70512,0.34927 2.88969,0.43617 5.81087,0.7091 8.65215,1.39297 1.78651,0.43 3.53091,1.02011 5.31265,1.46945 2.98632,0.75312 6.09645,1.10709 9.15804,0.77247 3.2941,-0.36004 6.50688,-1.50957 9.81969,-1.43207 1.35838,0.0318 2.70755,0.27142 4.01277,0.64907 1.31265,0.3798 2.61744,0.9202 3.6071,1.86246 0.72535,0.69061 1.25006,1.56936 1.64371,2.49029 0.57625,1.34814 0.88626,2.79994 1.02105,4.25986 0.11897,1.28855 0.10468,2.59405 0.36251,3.86214 0.4369,2.14878 1.63966,4.08139 3.11506,5.70353 1.4754,1.62214 3.22406,2.96752 4.9559,4.31247 1.75634,1.36398 3.50975,2.7398 5.39565,3.91818 0.88228,0.55128 1.79349,1.05932 2.63473,1.67142 0.84123,0.61209 1.61878,1.33907 2.14473,2.23668 0.68386,1.16711 0.90229,2.59857 0.59763,3.91652 l 2e-5,0"
         style="fill:url(#linearGradient14477);fill-opacity:1;stroke:none" /></clipPath><inkscape:path-effect
       effect="spiro"
       id="path-effect29716-0-0-8"
       is_visible="true" /><inkscape:path-effect
       effect="spiro"
       id="path-effect29716-0-8-3-8"
       is_visible="true" /><inkscape:path-effect
       effect="spiro"
       id="path-effect29716-6-1-4"
       is_visible="true" /><clipPath
       id="clipPath14822-9-3"
       clipPathUnits="userSpaceOnUse"><path
         style="fill:none;stroke:#ce5c00;stroke-width:1px;stroke-linecap:butt;stroke-linejoin:miter;stroke-opacity:1"
         inkscape:original-d="m 386.1875,285.32775 c -2.36571,-3.81321 -7.59294,-4.9003 -11.805,-6.41698 -2.08672,-0.75138 -4.32322,-1.04333 -6.52782,-1.27734 -2.27612,-0.2416 -4.71593,-0.91505 -6.8653,-0.1253 -3.64566,1.33955 -7.24986,3.80684 -8.75671,7.70871 -1.13743,2.94527 -1.80122,7.05909 -1.65394,10.40316 0.13075,2.96891 0.9633,5.07273 2.60877,7.33912 1.08803,1.49859 3.40096,2.67896 5.43398,3.22092 3.49923,0.93284 7.37483,0.82779 10.86038,-0.1553 5.98587,-2.2615 11.09272,-5.76885 14.33034,-10.77903 1.07459,-1.67639 2.15539,-3.45031 2.5532,-5.4034 0.30053,-1.4755 0.61519,-3.23621 -0.1779,-4.51456 z"
         id="path14824-1-1"
         d="m 386.1875,285.32775 c -0.40516,-1.10369 -1.11845,-2.08156 -1.9907,-2.86987 -0.87226,-0.78832 -1.90049,-1.39229 -2.98278,-1.85155 -2.16459,-0.91852 -4.52053,-1.26149 -6.83152,-1.69556 -2.17919,-0.40931 -4.34179,-0.90631 -6.52782,-1.27734 -2.27136,-0.38551 -4.6179,-0.63213 -6.8653,-0.1253 -1.96583,0.44333 -3.7845,1.45879 -5.27172,2.81864 -1.48723,1.35984 -2.64911,3.0564 -3.48499,4.89007 -1.47218,3.22952 -1.93451,6.86503 -1.65394,10.40316 0.20882,2.63325 0.87532,5.34594 2.60877,7.33912 1.40065,1.61052 3.38733,2.61526 5.43398,3.22092 3.52502,1.04316 7.36663,0.98822 10.86038,-0.1553 5.76689,-1.93113 10.87568,-5.77387 14.33034,-10.77903 1.13861,-1.64963 2.11217,-3.44809 2.5532,-5.4034 0.33597,-1.48955 0.34831,-3.08112 -0.1779,-4.51456"
         inkscape:connector-curvature="0"
         sodipodi:nodetypes="aaaasssaccaa" /></clipPath><clipPath
       id="clipPath14822-2-4-4"
       clipPathUnits="userSpaceOnUse"><path
         style="fill:none;stroke:#ce5c00;stroke-width:1px;stroke-linecap:butt;stroke-linejoin:miter;stroke-opacity:1"
         inkscape:original-d="m 386.1875,285.32775 c -2.36571,-3.81321 -7.59294,-4.9003 -11.805,-6.41698 -2.08672,-0.75138 -4.32322,-1.04333 -6.52782,-1.27734 -2.27612,-0.2416 -4.71593,-0.91505 -6.8653,-0.1253 -3.64566,1.33955 -7.24986,3.80684 -8.75671,7.70871 -1.13743,2.94527 -1.80122,7.05909 -1.65394,10.40316 0.13075,2.96891 0.9633,5.07273 2.60877,7.33912 1.08803,1.49859 3.40096,2.67896 5.43398,3.22092 3.49923,0.93284 7.37483,0.82779 10.86038,-0.1553 5.98587,-2.2615 11.09272,-5.76885 14.33034,-10.77903 1.07459,-1.67639 2.15539,-3.45031 2.5532,-5.4034 0.30053,-1.4755 0.61519,-3.23621 -0.1779,-4.51456 z"
         id="path14824-6-5-9"
         d="m 386.1875,285.32775 c -0.40516,-1.10369 -1.11845,-2.08156 -1.9907,-2.86987 -0.87226,-0.78832 -1.90049,-1.39229 -2.98278,-1.85155 -2.16459,-0.91852 -4.52053,-1.26149 -6.83152,-1.69556 -2.17919,-0.40931 -4.34179,-0.90631 -6.52782,-1.27734 -2.27136,-0.38551 -4.6179,-0.63213 -6.8653,-0.1253 -1.96583,0.44333 -3.7845,1.45879 -5.27172,2.81864 -1.48723,1.35984 -2.64911,3.0564 -3.48499,4.89007 -1.47218,3.22952 -1.93451,6.86503 -1.65394,10.40316 0.20882,2.63325 0.87532,5.34594 2.60877,7.33912 1.40065,1.61052 3.38733,2.61526 5.43398,3.22092 3.52502,1.04316 7.36663,0.98822 10.86038,-0.1553 5.76689,-1.93113 10.87568,-5.77387 14.33034,-10.77903 1.13861,-1.64963 2.11217,-3.44809 2.5532,-5.4034 0.33597,-1.48955 0.34831,-3.08112 -0.1779,-4.51456"
         inkscape:connector-curvature="0"
         sodipodi:nodetypes="aaaasssaccaa" /></clipPath><inkscape:path-effect
       is_visible="true"
       id="path-effect14972-2-2-2"
       effect="spiro" /><inkscape:path-effect
       is_visible="true"
       id="path-effect15017-9-0"
       effect="spiro" /><clipPath
       id="clipPath15031-3-6"
       clipPathUnits="userSpaceOnUse"><path
         sodipodi:nodetypes="czzzzzzzzzzzzzzzszzzzzc"
         inkscape:original-d="m 248.06066,184.61218 c 0,0 -5.10626,6.34527 -7.89695,10.24696 -2.7907,3.9017 -5.73652,6.64881 -8.58729,10.75139 -2.85076,4.10259 -7.36482,9.43164 -9.44912,13.93045 -2.08429,4.49881 -2.32047,9.0356 -4.26498,13.84932 -1.94451,4.81371 -3.70129,10.64183 -5.97071,15.33612 -2.26943,4.69429 -5.37093,9.68473 -6.93891,13.53553 -1.56799,3.8508 -3.81119,5.72384 -4.10782,10.22071 -0.29663,4.49686 -0.57747,8.31749 3.77151,16.77227 4.34898,8.45478 17.23626,22.00721 24.24176,27.92472 7.00549,5.9175 9.39133,7.22492 14.60245,8.52595 5.21112,1.30104 13.85627,2.9981 16.72874,-1.2702 2.87246,-4.26829 2.27191,-5.96483 -0.74863,-10.66616 -3.02055,-4.70132 -4.82469,-5.30209 -9.79642,-9.57343 -4.97172,-4.27133 -18.63696,-14.87266 -22.68212,-19.23996 -4.04516,-4.36729 -7.10731,-3.41164 -5.53019,-6.28412 1.57712,-2.87249 -2.20738,-4.00856 -2.65783,-7.69253 -0.76361,-6.24511 0.9436,-18.71046 1.45958,-22.13343 0.51598,-3.42296 1.22371,-2.92446 3.51815,-8.03965 2.29444,-5.11519 4.12424,-8.62435 7.04933,-13.46723 2.92509,-4.84289 8.62493,-10.12787 11.15147,-15.27803 2.52654,-5.15017 3.50393,-10.72068 4.36185,-15.31831 0.85792,-4.59763 1.74613,-12.13037 1.74613,-12.13037 z"
         inkscape:connector-curvature="0"
         id="path15033-2-8"
         d="m 248.06066,184.61218 c -2.60091,3.4397 -5.23338,6.85555 -7.89695,10.24696 -2.83301,3.60715 -5.70116,7.1866 -8.58729,10.75139 -3.54135,4.37407 -7.15155,8.79286 -9.44912,13.93045 -1.97407,4.41422 -2.91014,9.20748 -4.26498,13.84932 -1.53862,5.27153 -3.62627,10.37023 -5.97071,15.33612 -2.1648,4.58539 -4.54978,9.06293 -6.93891,13.53553 -1.73823,3.25407 -3.50515,6.58104 -4.10782,10.22071 -0.47627,2.87632 -0.19849,5.84423 0.53376,8.66626 0.73224,2.82202 1.90964,5.5106 3.23775,8.10601 5.66724,11.07504 14.17003,20.62168 24.24176,27.92472 4.57063,3.31418 9.46669,6.18109 14.60245,8.52595 2.78247,1.27041 5.71355,2.40436 8.77186,2.45744 1.52915,0.0265 3.0741,-0.22544 4.47434,-0.84055 1.40024,-0.6151 2.65068,-1.60373 3.48254,-2.88709 1.02278,-1.5779 1.36992,-3.53829 1.16461,-5.40743 -0.2053,-1.86914 -0.93484,-3.65294 -1.91324,-5.25873 -2.38997,-3.92251 -6.1652,-6.76055 -9.79642,-9.57343 -7.84055,-6.07358 -15.42466,-12.48038 -22.68212,-19.23996 -2.04911,-1.90854 -4.0984,-3.87759 -5.53019,-6.28412 -1.3943,-2.34352 -2.14763,-5.01375 -2.65783,-7.69253 -1.39963,-7.34872 -1.0404,-15.0827 1.45958,-22.13343 0.97802,-2.75834 2.27066,-5.39225 3.51815,-8.03965 2.1622,-4.58855 4.21133,-9.26299 7.04933,-13.46723 3.53268,-5.23334 8.24484,-9.67275 11.15147,-15.27803 2.45457,-4.7335 3.49353,-10.05742 4.36185,-15.31831 0.66531,-4.03089 1.24751,-8.07549 1.74613,-12.13037"
         style="fill:none;stroke:#729fcf;stroke-width:0.125;stroke-linecap:butt;stroke-linejoin:miter;stroke-miterlimit:4;stroke-dasharray:none;stroke-opacity:1" /></clipPath><clipPath
       id="clipPath14186-9-9"
       clipPathUnits="userSpaceOnUse"><path
         style="fill:#402c07;fill-opacity:1;stroke:none"
         d="m 137.57703,281.0191 c 1.59929,-0.66295 3.3982,-0.78361 5.10074,-0.46963 1.70253,0.31398 3.31141,1.04948 4.74342,2.02239 2.86402,1.94583 4.98821,4.77774 7.02263,7.57952 4.67189,6.43406 9.16868,13.00227 13.24488,19.8293 3.30635,5.53766 6.34352,11.25685 10.16415,16.45304 2.49398,3.3919 5.3066,6.53947 7.813,9.92221 2.50639,3.38273 4.72794,7.05586 5.83931,11.11662 1.44411,5.27653 0.88463,11.09291 -1.62666,15.95302 -1.76663,3.41896 -4.47646,6.35228 -7.77242,8.33898 -3.29595,1.9867 -7.17064,3.01444 -11.01635,2.87021 -6.11413,-0.2293 -11.69944,-3.28515 -17.38362,-5.54906 -11.58097,-4.6125 -24.15978,-6.0594 -36.09666,-9.65174 -3.66859,-1.10404 -7.27582,-2.4107 -10.96988,-3.42629 -1.64125,-0.45122 -3.30866,-0.8482 -4.85875,-1.55144 -1.55008,-0.70325 -2.999548,-1.7491 -3.86171,-3.21675 -0.666391,-1.13439 -0.948386,-2.47002 -0.930187,-3.78554 0.0182,-1.31552 0.325889,-2.61453 0.773815,-3.85158 0.895851,-2.47409 2.343262,-4.71374 3.320162,-7.15696 1.59511,-3.98935 1.88169,-8.38839 1.66657,-12.67942 -0.21511,-4.29103 -0.91078,-8.54478 -1.20454,-12.83115 -0.13118,-1.91406 -0.18066,-3.85256 0.18479,-5.73598 0.36545,-1.88343 1.17577,-3.72459 2.55771,-5.05541 1.27406,-1.22693 2.96492,-1.95531 4.69643,-2.31651 1.73151,-0.3612 3.51533,-0.37747 5.28367,-0.33762 1.76833,0.0399 3.54067,0.13425 5.30351,-0.0106 1.76284,-0.14488 3.53347,-0.54055 5.06911,-1.41828 1.45996,-0.83447 2.65433,-2.0745 3.64374,-3.43424 0.9894,-1.35974 1.78909,-2.84573 2.60891,-4.31396 0.81983,-1.46823 1.66834,-2.93151 2.74157,-4.22611 1.07324,-1.2946 2.38923,-2.42304 3.94266,-3.06698"
         id="path14188-1-2"
         inkscape:connector-curvature="0"
         sodipodi:nodetypes="ssssssssssssssss"
         inkscape:original-d="m 137.57703,281.0191 c 6.32494,-1.3585 11.99755,4.87308 16.86679,9.13228 6.42572,5.62067 -8.54781,26.01622 13.24488,19.8293 5.86081,-1.66388 6.89528,11.31183 10.16415,16.45304 4.09971,6.44793 11.58575,13.6827 13.65231,21.03883 1.58383,5.63779 1.34339,10.90606 -1.62666,15.95302 -3.57124,6.06857 -11.7907,10.42929 -18.78877,11.20919 -5.73056,0.63864 -11.87822,-3.8351 -17.38362,-5.54906 -12.31617,-3.83432 -23.77946,-5.82074 -36.09666,-9.65174 -2.50091,-0.77785 -8.28361,-2.638 -10.96988,-3.42629 -4.51043,-1.3236 -6.46556,-0.99271 -8.72046,-4.76819 -2.68251,-4.49147 0.68051,-9.72669 3.16379,-14.79408 4.06995,-8.30524 1.91195,-17.82603 0.46203,-25.51057 -0.92235,-4.8884 -0.66071,-7.92707 2.7425,-10.79139 4.99476,-4.20385 14.53027,-1.53186 20.35272,-4.08305 5.82246,-2.55119 6.66365,-13.6939 12.93688,-15.04129 z" /></clipPath><inkscape:path-effect
       effect="spiro"
       id="path-effect4669-1-6"
       is_visible="true" /><inkscape:path-effect
       effect="spiro"
       id="path-effect4669-4-3-6"
       is_visible="true" /></defs><sodipodi:namedview
     pagecolor="#8dff28"
     bordercolor="#666666"
     borderopacity="1"
     objecttolerance="10"
     gridtolerance="10"
     guidetolerance="10"
     inkscape:pageopacity="0"
     inkscape:pageshadow="2"
     inkscape:window-width="1920"
     inkscape:window-height="1080"
     id="namedview19"
     showgrid="true"
     inkscape:zoom="1"
     inkscape:cx="34.502113"
     inkscape:cy="29.937347"
     inkscape:window-x="1600"
     inkscape:window-y="0"
     inkscape:window-maximized="0"
     inkscape:current-layer="Calque_1"
     inkscape:snap-global="false"
     inkscape:snap-bbox="false"
     inkscape:bbox-paths="true"
     inkscape:bbox-nodes="true"
     inkscape:snap-bbox-edge-midpoints="true"
     inkscape:snap-bbox-midpoints="true"
     inkscape:object-paths="true"
     inkscape:snap-intersection-paths="true"
     inkscape:snap-smooth-nodes="true"
     inkscape:snap-midpoints="true"
     inkscape:snap-grids="false"><inkscape:grid
       type="xygrid"
       id="grid4965" /></sodipodi:namedview><path
     style="display:inline;fill:#202020;fill-opacity:1;stroke-width:0.07213131"
     d="m 32.301335,1.0632285 c -0.397442,-7.213e-4 -0.812979,0.014627 -1.245046,0.04925 -10.923566,0.8792807 -8.027038,12.4219995 -8.189333,16.2860755 -0.193351,2.73484 -0.746923,4.911979 -2.543284,7.55302 -0.780005,0.625587 -1.326319,1.006961 -2.383712,1.621318 -1.085815,0.630869 -2.687878,2.480514 -3.940021,3.695739 -0.765712,0.743136 -2.731785,2.686425 -3.025936,3.333258 -0.0668,0.146889 -0.151437,0.386577 -0.234431,0.663893 -3.25e-4,0.0011 3.25e-4,0.0028 0,0.0039 -0.120981,0.403949 -0.229342,0.929395 -0.291561,1.493268 -0.01708,0.152954 -0.02959,0.306571 -0.03743,0.464922 -0.01011,0.219486 -0.0091,0.443079 0.0039,0.667834 0.008,0.145201 0.01768,0.290315 0.03743,0.435372 0.0061,0.04335 0.01058,0.08678 0.01773,0.13002 0.03586,0.219729 0.08267,0.438857 0.151691,0.652074 0.566402,1.749564 2.498589,3.781761 4.075952,5.027467 1.577358,1.245707 3.736762,2.394662 5.102326,2.614204 1.365563,0.21954 2.322255,0.149531 2.750134,-0.305353 0.42788,-0.454888 0.590095,-1.179608 0.305352,-2.05275 -0.284745,-0.873142 -2.204449,-3.093354 -2.592533,-3.618908 -0.09032,-0.122323 -0.286795,-0.341987 -0.522053,-0.592974 -0.0036,-0.0038 -0.0082,-0.0099 -0.01182,-0.01379 -0.185883,-0.197506 -0.414227,-0.430334 -0.642224,-0.661924 -0.06373,-0.06489 -0.118015,-0.121306 -0.183211,-0.187151 -0.0064,-0.0065 -0.01132,-0.0093 -0.01773,-0.01577 -0.601869,-0.605724 -1.242508,-1.231057 -1.589799,-1.556308 -0.01411,-0.01079 -0.02729,-0.02075 -0.04137,-0.03152 -0.582618,-0.446401 -1.136564,-0.874385 -1.686329,-1.241106 0.07367,-0.0027 1.473908,-0.05574 2.10791,-0.07092 1.667915,-0.03994 2.955921,-0.624777 4.138992,-1.402647 1.412665,-0.928829 2.72668,-2.16266 4.873805,-3.66816 0.14569,-0.102152 1.255517,-0.518985 2.210353,-0.527962 0.193622,-0.0018 0.326248,0.05732 0.498412,0.07683 -1.030628,0.414883 -2.002766,0.932027 -2.899855,1.642989 -0.420485,0.333243 -0.77105,0.781747 -1.174126,1.382947 -0.403076,0.6012 -0.80819,1.325941 -1.097296,2.109881 -0.289106,0.78394 -0.479796,1.632137 -0.332932,2.507823 0.140618,0.83845 0.60963,1.271818 1.162307,1.615408 l -2.324613,0.847105 c -0.244015,0.0889 -0.431745,0.455459 -0.342781,0.699353 l 1.089415,2.986537 c 0.088,0.241231 0.465996,0.393335 0.707234,0.305351 l 0.502352,-0.183211 c -0.01263,1.115076 0.28244,1.734157 1.051986,2.639814 1.049127,1.107372 2.631066,1.301546 4.129141,1.219437 0.651755,-0.03573 1.283011,-0.155382 1.887271,-0.317173 -0.07883,0.07409 -0.115965,0.175139 -0.214732,0.244282 -0.525621,0.367957 -1.512388,0.615552 -2.667394,0.766334 -1.155005,0.150777 -2.452251,0.227122 -3.658309,0.492503 -1.206057,0.265379 -2.440856,0.753699 -3.100796,1.930609 -0.77649,1.38476 -2.47444,3.148868 -4.552694,4.196123 -2.078254,1.047252 -4.469236,1.428687 -6.952167,0.321111 h -0.002 l -0.002,-0.002 C 9.5875495,54.838877 8.9224669,54.52293 8.4464801,54.129396 7.9725284,53.737545 7.5419405,54.121631 7.1147531,53.104991 L 4.3488586,44.367995 C 3.9778189,43.336865 3.9845122,42.581019 4.1735277,41.771522 4.362543,40.962024 4.7761218,40.098965 5.2530933,39.066697 c 1.1453178,-2.478706 2.5429522,-3.278824 4.4423732,-3.628759 0.1876433,-0.03458 0.3868875,-0.05616 0.5850925,-0.07881 0.07272,-0.37247 0.151771,-0.721302 0.228522,-1.018496 -2.5573102,0.235794 -4.7315134,1.184896 -6.1720425,4.302504 -0.9417801,2.03821 -1.801225,3.667942 -0.9377249,6.06763 l 2.5334333,7.036878 c 0.1310763,0.862143 0.2448155,1.674396 0.06501,2.233992 -0.6390834,1.747742 -0.72196,2.95645 -0.2718615,3.83364 0.451542,0.878559 1.3789856,1.264138 2.4270528,1.483417 2.0961358,0.437116 4.9348468,0.328423 7.2516078,1.548428 2.316761,1.220004 4.74358,1.663645 6.680305,1.221407 1.405119,-0.32019 2.544641,-1.155919 3.130347,-2.442813 1.514758,-0.0073 3.177993,-0.64953 5.841081,-0.795884 1.80689,-0.145778 4.064599,0.642675 6.660605,0.498413 0.0678,0.281312 0.165349,0.552165 0.299441,0.809673 0.0015,0.0021 0.0024,0.0055 0.0039,0.0079 1.006159,2.012463 2.876805,2.931021 4.869865,2.773774 1.995081,-0.157318 4.115922,-1.331725 5.791831,-3.345077 1.67591,-2.013352 4.388141,-2.835466 6.187802,-3.920321 0.899478,-0.542428 1.629346,-1.221553 1.68633,-2.208381 0.05612,-0.986036 -0.522235,-2.091689 -1.85378,-3.569659 l -0.002,-0.002 C 54.262518,49.380054 54.053795,48.464408 53.829538,47.488471 53.60586,46.513256 53.3556,45.461347 52.554942,44.779707 c -0.0015,-0.0015 -0.0045,-0.0024 -0.006,-0.0039 -0.158689,-0.138492 -0.320877,-0.255183 -0.484622,-0.352632 -0.164387,-0.09737 -0.20098,-0.143122 -0.498412,-0.240341 -0.2157,-0.0705 -0.543501,-0.134508 -0.898325,-0.185182 0.351056,-0.721668 0.696736,-1.734779 0.423552,-3.055486 -1.387824,1.11378 -4.085817,1.05005 -6.380863,0.754514 0.04841,0.449287 0.06594,0.916271 -0.01379,1.260807 -0.218547,-0.117757 -1.021109,-0.585134 -1.199736,-0.618583 -0.696509,-0.130423 -1.024771,-0.05994 -1.644959,0.195031 -1.111542,0.608788 -1.719116,1.712608 -2.05669,3.067306 -0.336853,1.353183 -0.433661,2.987898 -0.525993,4.826525 v 0.002 c -0.05698,0.924075 -0.438283,2.174336 -0.823465,3.498739 -3.879221,2.767606 -9.263697,3.965535 -13.835382,0.845135 -0.309441,-0.489772 -0.66461,-0.974916 -1.030315,-1.453868 -0.233706,-0.305764 -0.443806,-0.552689 -0.734815,-0.977125 -0.0838,-0.12222 -0.194425,-0.248385 -0.2955,-0.376272 0.163717,-0.235941 0.315321,-0.4712 0.443252,-0.699354 1.791828,-3.195473 10.837152,-0.01359 10.198743,-5.69333 -1.416669,1.201615 -5.352047,1.614978 -6.719705,0.171391 -0.660176,-0.69682 -0.956382,-1.437492 -0.809675,-2.300972 l 16.431857,-5.986861 c 0.388709,-1.368999 1.101061,-2.832799 2.074421,-3.459338 0.394467,-0.253913 1.062515,-0.436946 1.739519,-0.372332 1.075127,0.102608 2.044333,0.630115 2.805295,1.495238 0.314643,0.357712 1.92166,2.211933 1.570098,2.533433 -0.531596,-0.871243 -1.413985,-1.927997 -1.796649,-2.263542 -0.643959,-0.732055 -1.586514,-1.189866 -2.497974,-1.256867 -0.165319,-0.01215 -0.329297,-0.0065 -0.490532,0.0079 -0.04471,0.0039 -0.08777,0.01168 -0.131991,0.01773 -0.115286,0.01583 -0.227914,0.03852 -0.338842,0.06895 -0.04895,0.01337 -0.09788,0.02508 -0.14578,0.04137 -0.14877,0.05074 -0.293189,0.111458 -0.429462,0.191091 -0.148314,0.08453 -0.284601,0.195781 -0.415673,0.317171 -0.03412,0.03154 -0.06751,0.06281 -0.100471,0.09653 -0.05262,0.05393 -0.100088,0.116248 -0.149722,0.175332 -0.119677,0.142098 -0.23052,0.294215 -0.332931,0.460982 -0.03839,0.06266 -0.07634,0.123685 -0.112291,0.189121 -0.104692,0.189925 -0.197758,0.38797 -0.281711,0.594942 -0.01675,0.04142 -0.03529,0.08028 -0.05122,0.122141 -0.100068,0.262342 -0.184992,0.530439 -0.252162,0.799824 -0.162737,0.652667 -0.232194,1.2982 -0.198971,1.80453 0.01972,0.300685 0.175427,0.778311 0.242312,0.918025 0.229805,0.480069 0.593144,0.7512 1.101235,0.853014 0.136191,0.04853 0.194263,0.0752 0.659953,0.210791 0.249939,0.0471 0.506667,0.09665 0.849075,0.139871 0.907245,0.114535 3.957339,0.06052 5.088537,-0.423552 1.131198,-0.484066 1.447236,-1.954973 1.065776,-3.303707 -0.442323,-1.563924 -0.78331,-2.020184 -1.245047,-2.903796 0.108289,-0.02072 0.209789,-0.03016 0.311262,-0.0394 0.03798,-0.0034 0.07721,-0.01 0.11426,-0.01182 0.08467,-0.0041 0.166252,-6.93e-4 0.246251,0.0039 0.04797,0.0028 0.0955,0.0057 0.141841,0.01182 0.06971,0.009 0.136737,0.02294 0.202911,0.0394 0.05084,0.01279 0.100904,0.02801 0.149721,0.04531 0.06121,0.0215 0.121087,0.04613 0.179271,0.07486 0.04907,0.0244 0.09681,0.05308 0.14381,0.08274 0.05196,0.03259 0.104126,0.06529 0.153662,0.104411 0.05525,0.04385 0.107176,0.09559 0.15957,0.14775 0.03612,0.0358 0.07353,0.06853 0.108351,0.108351 0.05953,0.06836 0.115437,0.148175 0.171391,0.228522 0.02818,0.04037 0.05936,0.07473 0.08668,0.1182 0.07984,0.127269 0.155453,0.265257 0.228522,0.419612 2.223052,-0.963052 3.713015,-2.610842 5.301297,-4.190212 1.540127,0.687013 3.350923,0.02733 4.044432,-1.473567 0.693508,-1.500899 0.0054,-3.274679 -1.534638,-3.961691 l -10.876428,1.702088 c -0.413658,0.86256 -0.832,1.791844 -1.180036,2.655575 -7.526151,2.798433 -15.486576,5.677271 -22.448268,8.212973 -2.784119,-1.245606 0.152861,-5.721848 1.101236,-6.473454 1.40744,-1.115426 2.833103,-1.809498 4.659075,-2.121701 -1.115049,-2.136275 -4.71178,-1.361954 -5.67363,-0.687534 -3.728426,2.614258 -5.023459,4.391378 -7.779571,4.812735 -0.230549,0.02413 -0.522775,0.04411 -0.833314,0.05516 0.238207,-0.290386 0.468863,-0.591004 0.468863,-0.591004 l -0.002,0.01182 c 0.58006,-0.891212 1.255236,-1.774115 1.532804,-2.237906 0.414914,-0.693286 1.169431,-1.614466 1.747399,-2.584654 l 0.02167,-0.01182 c -0.514851,1.200752 -1.46495,3.083919 -1.790739,3.561779 -0.176756,0.259262 -0.486556,0.763936 -0.791945,1.243076 0.71489,-0.196372 1.444174,-0.635228 2.076392,-1.111085 1.561003,-3.35969 3.734795,-7.980396 3.94002,-11.851582 0.125508,0.09089 0.555486,0.381614 0.746635,0.490532 h 0.002 c 0.559739,0.329641 0.980196,0.81115 1.524787,1.248987 0.546034,0.438559 1.227646,0.818747 2.257633,0.878625 0.09882,0.0057 0.195101,0.0079 0.289591,0.0079 1.061774,0 1.889168,-0.346166 2.578744,-0.740724 0.749517,-0.42846 1.349073,-0.90279 1.916819,-1.087446 h 0.002 c 1.199543,-0.375082 2.152618,-1.039161 2.694974,-1.812409 0.931936,3.672926 3.098696,8.977138 4.491623,11.565931 0.194612,0.360798 0.329222,0.63578 0.443254,0.880594 l 1.631168,-0.600853 c -0.15731,-0.486897 -0.35077,-1.081725 -0.431432,-1.317937 -0.201597,-0.59035 -0.685882,-1.90275 -0.600853,-2.02517 0.410581,1.236876 0.853617,1.758302 1.357337,3.222936 l 4.599974,-1.696178 0.0099,-0.157601 c -0.764768,-1.54598 -1.53018,-2.626702 -2.716702,-4.028743 -2.057906,-2.596006 -4.070386,-5.06179 -4.030642,-8.701536 0.06124,-5.554832 0.610747,-15.8547276 -9.164488,-15.8684325 z m 1.296267,8.5577248 h 0.02561 c 0.553969,0 1.028053,0.1634164 1.514938,0.5161427 0.494099,0.359214 0.851615,0.806614 1.138666,1.434167 0.281313,0.611674 0.415684,1.209737 0.429462,1.918791 0,0.01874 6.42e-4,0.03444 0.006,0.05319 0.0058,0.727805 -0.119709,1.34727 -0.395972,1.979859 -0.157246,0.36066 -0.338427,0.663348 -0.555542,0.925906 -0.07364,-0.03534 -0.149102,-0.06801 -0.228521,-0.100472 -0.27482,-0.117573 -0.51902,-0.215247 -0.736784,-0.297471 -0.217909,-0.08223 -0.388072,-0.138382 -0.563423,-0.198972 0.127022,-0.15364 0.377714,-0.334238 0.470832,-0.561452 0.141375,-0.342624 0.20963,-0.676741 0.222611,-1.075625 0,-0.01587 0.006,-0.0305 0.006,-0.04925 0.008,-0.382295 -0.04185,-0.709416 -0.15366,-1.044105 -0.116852,-0.35128 -0.265803,-0.603707 -0.480683,-0.813614 -0.215672,-0.209902 -0.431273,-0.304557 -0.689504,-0.313231 -0.01226,-7.21e-4 -0.0232,0 -0.03546,0 -0.242361,7.21e-4 -0.453865,0.08418 -0.671773,0.265951 -0.228657,0.191146 -0.398478,0.435725 -0.539783,0.776184 -0.140659,0.34046 -0.208833,0.678515 -0.222611,1.079565 -0.0021,0.01587 -0.002,0.02944 -0.002,0.04531 -0.005,0.220721 0.0095,0.422385 0.04334,0.618583 -0.496263,-0.247411 -1.13154,-0.427313 -1.570098,-0.531902 -0.02525,-0.189706 -0.039,-0.386151 -0.04334,-0.591004 v -0.05516 c -0.008,-0.725641 0.110914,-1.34799 0.390062,-1.979861 0.279148,-0.632591 0.624994,-1.087766 1.111087,-1.457808 0.486792,-0.369268 0.964539,-0.5379523 1.530698,-0.5437218 z m -7.566809,0.6008527 c 0.36859,7.21e-4 0.697735,0.124037 1.038194,0.395972 0.369314,0.295018 0.648866,0.672069 0.882565,1.203677 0.23443,0.531607 0.35937,1.062727 0.394003,1.690269 v 0.006 c 0.01655,0.263279 0.01517,0.510377 -0.006,0.750574 -0.07285,0.02092 -0.144762,0.04318 -0.21473,0.06698 -0.396724,0.13705 -0.710162,0.289286 -1.014556,0.490532 0.0296,-0.210624 0.03278,-0.425139 0.0099,-0.663893 -0.0021,-0.01298 -0.002,-0.02248 -0.002,-0.03546 -0.03174,-0.316656 -0.09899,-0.582715 -0.210792,-0.851044 -0.119017,-0.279149 -0.252212,-0.476957 -0.427492,-0.628434 -0.158688,-0.13705 -0.30887,-0.200383 -0.474772,-0.198971 -0.01659,0 -0.03391,3.04e-4 -0.05122,0.002 -0.186099,0.01587 -0.340166,0.107487 -0.486593,0.285651 -0.145705,0.177443 -0.242018,0.398618 -0.311262,0.691474 -0.06924,0.292129 -0.08794,0.578534 -0.0591,0.908174 0,0.01298 0.0039,0.02445 0.0039,0.03743 0.03174,0.319535 0.09485,0.584686 0.208821,0.853015 0.116853,0.276262 0.254183,0.473017 0.429462,0.624492 0.02957,0.02525 0.05784,0.04875 0.08668,0.06895 -0.181771,0.140656 -0.305039,0.241023 -0.455072,0.350662 -0.09593,0.06997 -0.208091,0.15209 -0.340812,0.250191 -0.289247,-0.271213 -0.515504,-0.610486 -0.713144,-1.059866 -0.233705,-0.530881 -0.35846,-1.062726 -0.395972,-1.690269 v -0.006 c -0.03463,-0.627543 0.02658,-1.167433 0.198971,-1.725729 0.173115,-0.558297 0.403344,-0.960523 0.738754,-1.292327 0.334689,-0.332525 0.672745,-0.501133 1.079566,-0.522053 0.03174,-0.0014 0.06158,-0.002 0.09259,-0.002 z m 3.453428,4.351753 c 0.855477,-0.0036 1.884637,0.276938 3.130346,1.077596 0.765312,0.497706 1.361189,0.539696 2.732404,1.126845 h 0.002 l 0.002,0.002 c 0.65928,0.270492 1.04549,0.623379 1.235196,0.994855 0.188986,0.371476 0.194135,0.773634 0.03546,1.197766 -0.316584,0.847544 -1.328165,1.739886 -2.746195,2.182772 v 0.002 h -0.002 c -0.691811,0.224328 -1.295504,0.720744 -2.00744,1.126847 -0.710494,0.406818 -1.514784,0.735247 -2.608295,0.671773 -0.465969,-0.0274 -0.837575,-0.119773 -1.156395,-0.256101 -0.31882,-0.136329 -0.583546,-0.316145 -0.835285,-0.518113 -0.503476,-0.404657 -0.94389,-0.91311 -1.585858,-1.290357 l -0.002,-0.002 c -1.034363,-0.584985 -1.600234,-1.261441 -1.776948,-1.847869 -0.177443,-0.586427 -0.0105,-1.087138 0.502352,-1.471598 0.57705,-0.432788 0.977439,-0.728459 1.245046,-0.923935 0.265443,-0.194754 0.375864,-0.267909 0.460983,-0.348691 v -0.002 c 0.433509,-0.41043 1.126684,-1.158416 2.168981,-1.516909 0.358493,-0.124069 0.757711,-0.203469 1.205648,-0.204881 z m -1.128817,1.000765 c -0.117055,0.0069 -0.234803,0.03627 -0.338841,0.07683 -0.161698,0.06304 -0.414595,0.172675 -0.392032,0.344751 0.01709,0.130256 0.223292,0.179165 0.354601,0.175332 0.137586,-0.0039 0.234208,-0.141851 0.356573,-0.204881 0.13945,-0.07183 0.380832,-0.04724 0.427492,-0.197002 0.01522,-0.04885 -0.03211,-0.107117 -0.07683,-0.13199 -0.0976,-0.05427 -0.213906,-0.0699 -0.330962,-0.06304 z m 2.241872,0 c -0.117055,-0.0069 -0.231398,0.0088 -0.328991,0.06304 -0.04474,0.02487 -0.09404,0.08313 -0.0788,0.13199 0.04666,0.149767 0.288044,0.125176 0.427493,0.197002 0.122366,0.06303 0.220956,0.200947 0.358541,0.204881 0.131309,0.0038 0.335546,-0.04508 0.352632,-0.175332 0.02256,-0.172079 -0.228364,-0.281711 -0.390062,-0.344751 -0.104039,-0.04057 -0.223757,-0.06997 -0.340813,-0.07683 z m 4.554664,2.239902 c -0.332372,-0.03874 -0.316508,0.31719 -0.719053,0.612673 -0.52615,0.386215 -1.171784,0.895822 -1.67845,1.180037 -0.894302,0.501661 -2.359884,1.239136 -3.614968,1.239136 -1.257249,0 -2.261065,-0.581545 -3.014116,-1.178066 -0.376525,-0.298624 -0.687623,-0.599082 -0.935755,-0.831344 -0.183444,-0.171552 -0.226802,-0.554632 -0.518113,-0.591004 -0.173795,-0.01383 -0.22403,0.454106 0.198971,0.788004 0.243805,0.227935 0.56714,0.541741 0.965305,0.856955 0.79633,0.631149 1.902196,1.278537 3.303708,1.278537 1.402232,0 2.721212,-0.712142 3.8494,-1.300208 0.591456,-0.308294 1.319369,-0.848675 1.784829,-1.254895 0.465459,-0.406222 0.710613,-0.761083 0.378242,-0.799825 z m 24.70787,8.977338 c 0.413323,-0.06678 0.813812,0.221015 0.880594,0.634343 0.06678,0.413323 -0.222985,0.811841 -0.636313,0.878624 -0.413323,0.06678 -0.811842,-0.221017 -0.878624,-0.634344 -0.06678,-0.413321 0.221017,-0.811843 0.634343,-0.878623 z m -1.86363,0.301411 c 0.413323,-0.06678 0.811843,0.221014 0.878625,0.634343 0.06678,0.413324 -0.221016,0.811843 -0.634344,0.878625 -0.413324,0.06678 -0.811842,-0.221016 -0.878624,-0.634344 -0.06678,-0.413323 0.221016,-0.811842 0.634343,-0.878624 z m -1.863629,0.301411 c 0.413322,-0.06678 0.809871,0.221015 0.876654,0.634344 0.06678,0.413322 -0.219046,0.811842 -0.632374,0.878624 -0.413323,0.06678 -0.811842,-0.221015 -0.878625,-0.634343 -0.06678,-0.413323 0.221018,-0.811842 0.634345,-0.878625 z m -1.865601,0.301412 c 0.413324,-0.06678 0.811843,0.219045 0.878625,0.632373 0.06678,0.413323 -0.221014,0.813812 -0.634343,0.880595 -0.413323,0.06678 -0.809873,-0.222985 -0.876655,-0.636314 -0.06678,-0.413322 0.219046,-0.809862 0.632373,-0.876654 z m -1.863629,0.301411 c 0.413322,-0.06678 0.811842,0.219046 0.878624,0.632374 0.06678,0.413322 -0.221016,0.811842 -0.634343,0.878624 -0.413324,0.06678 -0.811842,-0.219045 -0.878624,-0.632373 -0.06678,-0.413322 0.221017,-0.811832 0.634343,-0.878625 z m -1.8656,0.301412 c 0.413323,-0.06678 0.811842,0.219044 0.878624,0.632373 0.06678,0.413322 -0.221014,0.811842 -0.634343,0.878625 -0.413323,0.06678 -0.811842,-0.219046 -0.878625,-0.632373 -0.06678,-0.413323 0.221018,-0.811843 0.634344,-0.878625 z m -34.977534,7.123557 c -0.0025,0.0034 -0.02445,0.02992 -0.02561,0.03152 -0.013,-0.0086 -0.02641,-0.01904 -0.0394,-0.02758 0,0 0.05604,-0.0035 0.06501,-0.0039 z m -3.329317,6.244933 c -0.09882,-0.0033 -0.200413,0.01119 -0.299441,0.04727 l -2.6142045,0.953485 c -0.3960607,0.144315 -0.5953394,0.573396 -0.4452221,0.961365 l 2.5216136,6.516794 c 0.150121,0.387958 0.588929,0.583623 0.985004,0.439312 l 2.616174,-0.953484 c 0.396065,-0.144317 0.591395,-0.573399 0.441282,-0.961365 l -2.517672,-6.514825 c -0.07507,-0.193998 -0.225643,-0.34406 -0.403852,-0.423551 -0.0891,-0.03974 -0.184865,-0.06168 -0.283682,-0.06501 z m 30.771562,1.434167 c 0.141351,-0.0028 0.296299,0.0072 0.459012,0.0394 0.650853,0.128985 1.547233,1.108258 2.728464,1.380976 1.181232,0.272723 1.692219,0.220736 2.098061,0.216702 0.399707,-0.0039 1.359287,0.02798 1.534638,0.02364 0.81292,-0.01955 1.493862,0.02752 2.190651,0.636313 l 0.002,0.002 0.002,0.002 c 0.535214,0.453706 0.789893,1.310105 1.010615,2.269452 0.220794,0.960139 0.397628,2.005018 1.059865,2.750135 v 0.002 h 0.002 c 1.272468,1.411609 1.680301,2.365207 1.644958,2.974716 -0.03463,0.608716 -0.474023,1.061874 -1.288386,1.552368 -1.627354,0.981707 -4.511838,1.83508 -6.353284,4.066101 -1.599944,1.903546 -3.550433,2.949429 -5.267808,3.085036 -1.717374,0.135607 -3.199749,-0.57701 -4.07398,-2.330522 l -0.002,-0.0039 -0.002,-0.0039 c -0.5425,-1.031478 -0.316722,-2.65874 0.13987,-4.375394 0.456591,-1.716003 1.113703,-3.479429 1.201707,-4.911236 v -0.0039 c 0.09226,-1.834948 0.194426,-3.437802 0.502352,-4.674833 0.308722,-1.237055 0.79493,-2.074237 1.654809,-2.545254 0.0303,-0.01623 0.332426,-0.143118 0.756484,-0.151692 z m -20.98849,9.56637 c 0.30954,0.383857 0.616338,0.760686 0.914084,1.150486 1.124527,1.471551 1.994608,2.948873 1.88136,4.079892 l -0.002,0.006 v 0.0039 c -0.147148,1.928791 -1.233234,2.979262 -2.903795,3.360837 -1.669119,0.381574 -3.935088,0.0022 -6.195683,-1.180036 l -0.002,-0.002 C 13.204739,58.761442 10.229716,58.893825 8.3203994,58.494939 7.3661021,58.295857 6.7424096,57.995867 6.4567696,57.439014 6.1711296,56.881438 6.1646256,55.910363 6.7719712,54.253507 l 0.00394,-0.0079 0.00197,-0.0079 c 0.045745,-0.140974 0.059152,-0.286997 0.08274,-0.431432 0.785589,1.240593 1.7296587,1.693502 3.3371978,2.405382 4.786331,2.135067 9.453831,-0.682207 11.816122,-3.544049 z"
     id="path3"
     inkscape:connector-curvature="0" /></svg>