<?xml version="1.0" encoding="UTF-8"?>
<svg width="24" height="24" version="1.1" xmlns="http://www.w3.org/2000/svg"><path d="m13.193 2.0195 2.0039 0.00195c0.62137 0 1.107 0.18166 1.5039 0.5625l7.3281 7.4531-7.3281 7.4551c-0.39687 0.38284-0.88254 0.56445-1.5039 0.56445h-2.0039v-2.0039c0-0.51714 0.26015-1.0625 0.62695-1.4434l2.6055-2.6055-9.2461 0.01563c-1.6837 3e-3 -3.0059 1.3241-3.0059 3.0078s1.3222 3.0059 3.0059 3.0059h1.002v4.0078h-1.002c-3.8505 0-7.0156-3.1632-7.0156-7.0137s3.1652-7.0086 7.0156-7.0156l9.168-0.01758-2.5273-2.5293c-0.36681-0.38084-0.62695-0.92627-0.62695-1.4414z" color="#000000" fill="#202020" stroke-width="2.0044" style="font-feature-settings:normal;font-variant-alternates:normal;font-variant-caps:normal;font-variant-ligatures:normal;font-variant-numeric:normal;font-variant-position:normal;isolation:auto;mix-blend-mode:normal;shape-padding:0;text-decoration-color:#000000;text-decoration-line:none;text-decoration-style:solid;text-indent:0;text-orientation:mixed;text-transform:none;white-space:normal"/></svg>
