<?xml version="1.0" encoding="UTF-8"?>
<svg width="24" height="24" version="1.2" xmlns="http://www.w3.org/2000/svg"><path d="m2.1184 9.2246a0.50005 0.50005 0 0 1 0.085938 0.00586l19.67 2.8555 0.02539 0.0039a0.50005 0.50005 0 0 1 0.04297 0.0059 0.50005 0.50005 0 0 1 0.02539 0.0039 0.50005 0.50005 0 0 1 0.0059 2e-3 0.50005 0.50005 0 0 1-0.12109 0.98828h-0.0059l-19.643 2.8515a0.50036 0.50036 0 1 1-0.14453-0.99023l16.309-2.3652-16.309-2.3652a0.50005 0.50005 0 0 1 0.058594-0.99609z" color="#000000" color-rendering="auto" dominant-baseline="auto" fill="#202020" image-rendering="auto" shape-rendering="auto" solid-color="#000000" style="font-feature-settings:normal;font-variant-alternates:normal;font-variant-caps:normal;font-variant-ligatures:normal;font-variant-numeric:normal;font-variant-position:normal;isolation:auto;mix-blend-mode:normal;shape-padding:0;text-decoration-color:#000000;text-decoration-line:none;text-decoration-style:solid;text-indent:0;text-orientation:mixed;text-transform:none;white-space:normal"/></svg>
