<?xml version="1.0" encoding="UTF-8"?>
<svg width="24" height="24" version="1.2" xmlns="http://www.w3.org/2000/svg"><path d="m9.2713 3.9433-2.4292 0.12146-0.064777 0.42915h0.21053c0.44693 0 0.5587 0.055388 0.5587 0.2834 0 0.10033-0.029228 0.26981-0.12955 0.60729l-1.0769 3.6113c-0.16417 0.5199-0.20243 0.75378-0.20243 0.96356 0 0.49254 0.37478 0.83401 0.93117 0.83401 0.41957 0 0.76774-0.16251 1.1417-0.51822 0.31922-0.30098 0.59388-0.63316 0.78542-0.97976l-0.36437-0.25101c-0.36483 0.60199-0.77909 1.0364-0.97976 1.0364-0.072966 0-0.12955-0.06263-0.12955-0.15385 0-0.045601 0.021139-0.15171 0.048585-0.24292l0.040483-0.14574zm6.6235 0.77733-0.51012 1.7004h-0.79352l-0.16194 0.5587h0.79352l-0.59109 2.0081c-0.03648 0.1368-0.0779 0.2499-0.10526 0.33198-0.08209 0.27362-0.12146 0.53116-0.12146 0.70445 0 0.41957 0.38298 0.75303 0.8664 0.75303 0.46517 0 0.9215-0.23017 1.3684-0.70445 0.18241-0.20065 0.26876-0.31309 0.61538-0.8421l-0.33198-0.24291c-0.34658 0.60199-0.77305 1.0607-0.95547 1.0607-0.07296 0-0.12955-0.079857-0.12955-0.16194 0-0.063841 0.0768-0.37908 0.18624-0.75303l0.63968-2.1538h1.0445l0.15385-0.5587h-1.0445l0.50202-1.7004zm-3.587 1.5628c-1.5323 0-2.8826 1.3139-2.8826 2.8097 0 1.0945 0.65837 1.6842 1.8623 1.6842 0.83002 0 1.5063-0.30786 2.081-0.95547l-0.32389-0.31579c-0.54726 0.54726-0.91032 0.73684-1.3846 0.73684-0.48342 0-0.78542-0.32221-0.78542-0.8421 0-0.10944 6e-3 -0.15962 0.02429-0.39676 0.53814-0.02736 0.92354-0.090943 1.3522-0.21863 1.0398-0.30098 1.5547-0.76233 1.5547-1.4008 0-0.62935-0.6406-1.1012-1.498-1.1012zm-0.0162 0.42915c0.24626 0 0.39676 0.16463 0.39676 0.42915 0 0.50166-0.4486 1.0503-1.0688 1.2874-0.18241 0.063845-0.33867 0.10014-0.63968 0.14575 0.20978-1.1128 0.74624-1.8623 1.3117-1.8623zm-3.3198 4.7773c-0.42869 0-0.77733 0.34866-0.77733 0.77733 0 0.41957 0.35877 0.77733 0.76923 0.77733 0.43781 0 0.78542-0.34862 0.78542-0.77733 0-0.42869-0.34866-0.77733-0.77733-0.77733zm12.372 1.8624c-0.39219 0-0.75145 0.19274-1.1984 0.63968-0.32834-0.10944-0.58355-0.14574-0.93927-0.14574-1.2222 0-2.0729 0.65567-2.0729 1.5951 0 0.36483 0.1413 0.62515 0.46964 0.89878-0.71144 0.22802-1.0931 0.6097-1.0931 1.0931 0 0.31922 0.13208 0.50984 0.54251 0.72874-0.78442 0.14594-1.1498 0.42654-1.1498 0.88259 0 0.63848 0.79277 1.0121 2.17 1.0121 1.6418 0 2.5344-0.53719 2.5344-1.5223 0-0.59287-0.28154-0.92186-0.94737-1.0769-0.2189-0.0456-0.79854-0.12035-1.6194-0.20243-0.3101-0.02736-0.44534-0.11616-0.44534-0.30769 0-0.15506 0.18287-0.2834 0.42915-0.2834 0.06384 0 0.17088 0.01418 0.3077 0.03239 0.31922 0.0456 0.89552 0.08907 1.0688 0.08907 1.1128 0 1.9109-0.60318 1.9109-1.4332 0-0.49254-0.25546-0.90855-0.72065-1.1822 0.11856-0.15506 0.21546-0.22672 0.31579-0.22672 0.06384 0 0.10823 0.0525 0.15385 0.16194 0.10032 0.27362 0.23453 0.38866 0.45344 0.38866 0.28274 0 0.48583-0.2162 0.48583-0.52632 0-0.36483-0.26367-0.61538-0.65587-0.61538zm-15.441 0.49392c-0.60199 0-1.0539 0.31773-1.6194 1.166l0.2834-1.1579-2.2753 0.12955-0.064777 0.42915h0.21862c0.44694 0 0.5587 0.05538 0.5587 0.2834 0 0.10032-0.037325 0.26981-0.13765 0.60729l-0.8664 2.915h1.4332l0.38057-1.2713c0.25538-0.87562 0.71096-1.7252 1.1579-2.1538 0.13681-0.1368 0.2914-0.23482 0.36437-0.23482 0.063844 0 0.089113 0.03937 0.089068 0.12146 0 0.1368 0.014147 0.21044 0.032391 0.2834 0.063844 0.2645 0.31541 0.44534 0.60729 0.44534 0.39223 0 0.68826-0.33245 0.68826-0.76113 0-0.48342-0.33941-0.80162-0.8502-0.80162zm8.5263 0c-0.66584 0-1.1864 0.33896-1.8704 1.2146l0.2915-1.2065-2.2753 0.12955-0.06478 0.42915h0.21862c0.44693 0 0.55871 0.05538 0.55871 0.2834 0 0.10032-0.03732 0.26069-0.13765 0.60729l-0.86639 2.915h1.4332l0.34008-1.1579c0.25538-0.84826 0.48936-1.3223 0.89069-1.8057 0.34658-0.41047 0.64749-0.63158 0.8664-0.63158 0.13681 0 0.26721 0.11626 0.26721 0.23482 0 0.06384-0.02612 0.18605-0.08097 0.33198l-0.5668 1.5385c-0.14593 0.41957-0.17814 0.55638-0.17814 0.79352 0 0.51078 0.36566 0.83401 0.93118 0.83401 0.66584 0 1.2248-0.44496 1.9271-1.5304l-0.35628-0.22672-0.08907 0.10527c-0.48342 0.67496-0.71842 0.90688-0.88259 0.90688-0.06384 0-0.12955-0.07278-0.12955-0.14574 0-0.07296 0.0058-0.07456 0.09716-0.34818l0.42915-1.166c0.20977-0.55638 0.2834-0.86499 0.2834-1.166 0-0.54726-0.43445-0.93927-1.0364-0.93927zm-4.9636 0.0081-2.4372 0.12955-0.064777 0.42915h0.21863c0.44693 0 0.5587 0.05538 0.5587 0.2834 0 0.10032-0.037325 0.26981-0.13765 0.60729l-0.46963 1.5547c-0.11857 0.40131-0.12955 0.49876-0.12955 0.67206 0 0.4743 0.40011 0.82591 0.94737 0.82591 0.69319 0 1.2664-0.45817 1.8866-1.498l-0.35628-0.25906c-0.43781 0.6932-0.74065 1.0364-0.92308 1.0364-0.082086 0-0.14575-0.06361-0.14575-0.14574 0-0.07296 0.00706-0.10593 0.089068-0.38866zm9.9352 0.42105c0.32834 0 0.5668 0.27383 0.5668 0.64777 0 0.30098-0.09699 0.69598-0.24292 0.98785-0.1368 0.29186-0.34381 0.43725-0.59919 0.43725-0.36487 0-0.59109-0.24543-0.59109-0.65587 0-0.34658 0.09494-0.73646 0.25911-1.0283 0.14592-0.25538 0.35189-0.38866 0.60729-0.38866zm-1.6113 4.1862c0.39219 0 1.1009 0.06674 1.3198 0.12146 0.28274 0.07296 0.39676 0.18592 0.39676 0.40486 0 0.41957-0.48163 0.63968-1.3846 0.63968-0.72056 0-1.0931-0.2201-1.0931-0.63968 0-0.35571 0.25036-0.52632 0.76113-0.52632z" fill="#202020" stroke-width="4.1457"/></svg>
