<?xml version="1.0" encoding="UTF-8"?>
<svg width="24" height="24" version="1.2" xmlns="http://www.w3.org/2000/svg"><path d="m18.674 7.9473l-8.6973 8.1055h0.79297l8.709-8.1055h-0.80469zm-11.436 0.31641c-0.77522 3.548e-4 -1.4227 0.20306-1.875 0.60156-0.34494 0.31259-0.57422 0.75831-0.57422 1.168 0 0.56053 0.4258 0.98633 0.98633 0.98633 0.51741 0 0.87109-0.34491 0.87109-0.85156 0-0.29103-0.11904-0.5234-0.43164-0.81445-0.0539-0.053895-0.076172-0.07993-0.076172-0.12305 0-0.2048 0.41265-0.41211 0.82227-0.41211 0.6791 0 1.0723 0.49906 1.0723 1.3398 0 0.92703-0.32539 1.5117-0.83203 1.5117-0.08624 0-0.20057-0.024201-0.37305-0.056641-0.24793-0.05389-0.31206-0.068359-0.44141-0.068359-0.24792 0-0.39062 0.12911-0.39062 0.35547 0 0.23714 0.16426 0.41016 0.39062 0.41016 0.04312 0 0.10915 0.001234 0.17383-0.009766 0.32338-0.03234 0.49205-0.05664 0.53516-0.05664 0.66832 0 1.0039 0.51798 1.0039 1.5312 0 1.0779-0.45426 1.7031-1.252 1.7031-0.45274 0-0.92969-0.22281-0.92969-0.44922 0-0.06468 0.039794-0.12673 0.11523-0.19141 0.32338-0.31259 0.39258-0.45402 0.39258-0.75586 0-0.50664-0.39853-0.90039-0.9375-0.90039-0.57131 0-0.9668 0.41982-0.9668 1.0234 0 1.0887 1.0611 1.8379 2.6133 1.8379 0.7869 0 1.5218-0.19021 2.0176-0.53516 0.49587-0.34467 0.82422-1.0054 0.82422-1.6953 0-0.6791-0.29906-1.2773-0.79492-1.5684-0.30182-0.17247-0.56732-0.24096-1.1387-0.31641 0.12935-0.03234 0.21165-0.054562 0.28711-0.076172 0.94859-0.26947 1.4551-0.85359 1.4551-1.6836 0-1.1421-1.0154-1.9036-2.5449-1.9043h-0.0019532z" fill="#202020" stroke-width="4.8995"/></svg>
