<?xml version="1.0" encoding="UTF-8"?>
<svg width="16.014" height="16" version="1.1" xmlns="http://www.w3.org/2000/svg"><path d="m15 0-3 2v1l-5.5312 5.5312c-1 0-0.74127-1.7665-0.5625-2.125 0.26522-0.53184 0.59375-0.9375 1.0938-1.2812-0.625-0.5-1.5879 0.22584-1.7812 0.5625-0.88392 1.5393-0.91487 2.2649-2.125 2.7812-1.5587 0.66514-3.0938 0.96875-3.0938 2.9688 0 0.75-0.031706 1.3639 0.55469 1.9785l1.9297 2.0215c0.58531 0.55442 0.93916 0.56452 1.6719 0.5625 2 0 3.0312-2.0312 3.125-3.25s3.2201-1.4791 2.25-3.125c-0.25612 0.55939-1.3697 1.2211-1.9746 0.9668-0.29201-0.12275-0.48164-0.3084-0.55664-0.5918l6-6c0.34115-0.29688 0.6369-0.3142 1 0 0.52865-0.59635 0.74475-1.302 1-2 0.55228 0 1-0.44772 1-1 0-0.55228-0.44772-1-1-1zm-10.096 8.1797c0.050969 0.2076 0.050716 0.40507 0.19531 0.62305 0.09543 0.14386 0.34081 0.15255 0.50195 0.26758l0.45898 1.2695-0.027344-0.083985c0.13493 0.50982 0.57513 0.86757 0.99609 1.1016-0.34215 0.29648-0.69664 0.69886-0.74414 1.3164-0.028628 0.37217-0.25533 1.0544-0.63672 1.5391-0.38139 0.48463-0.83073 0.78706-1.4922 0.78711h-0.0019531c-0.36132 9.9e-4 -0.53937-0.013156-0.61719-0.035156-0.076862-0.02173-0.14598-0.04699-0.36133-0.25-0.0026598-0.0025-0.0011862-0.001308-0.0039062-0.003906l-1.8945-1.9844v-0.001953c-0.17066-0.1792-0.20497-0.27051-0.24023-0.44531-0.035379-0.1754-0.037109-0.45271-0.037109-0.8418 0-0.74416 0.15155-0.89401 0.53906-1.168 0.38751-0.27396 1.1094-0.52334 1.9473-0.88086 0.65332-0.27878 1.0763-0.74239 1.418-1.209zm-1.4043 2.4238c-0.063905 0-0.12681 0.025251-0.17578 0.074218l-0.64648 0.64648c-0.097934 0.097934-0.097934 0.25558 0 0.35352l1.6445 1.6445c0.097934 0.097934 0.25558 0.097934 0.35352 0l0.64648-0.64648c0.097934-0.097934 0.097934-0.25558 0-0.35352l-1.6445-1.6445c-0.048967-0.048967-0.11383-0.074218-0.17773-0.074218z" fill="#202020"/></svg>
