<?xml version="1.0" encoding="UTF-8"?>
<svg width="24" height="24" version="1.2" xmlns="http://www.w3.org/2000/svg"><path d="m17.371 2c-0.16 0-0.30468 0.14469-0.30468 0.30469v2.5234l-1.3281 0.5v-2.3203c0-0.16-0.14469-0.30469-0.30469-0.30469s-0.28906 0.14469-0.28906 0.30469v2.5234l-0.73438 0.27344c-0.128 0.048-0.21094 0.16106-0.21094 0.28906v0.96094c0 0.176 0.14431 0.32031 0.32031 0.32031 0.032 0 0.08519 3.76e-4 0.11719-0.01564l0.50781-0.17967v2.5625l-0.73438 0.25781c-0.128 0.048-0.21094 0.17669-0.21094 0.30469v0.96094c0 0.176 0.14431 0.32031 0.32031 0.32031 0.032 0 0.08519 3.77e-4 0.11719-0.01564l0.50781-0.1953v2.3203c0 0.16 0.12906 0.30469 0.28906 0.30469s0.30469-0.14469 0.30469-0.30469v-2.5312l1.3281-0.49219v2.3203c0 0.16 0.14468 0.30469 0.30468 0.30469s0.28906-0.14469 0.28906-0.30469v-2.5313l0.73438-0.27344c0.128-0.048 0.20312-0.15325 0.20312-0.28125v-0.96094c0-0.176-0.14431-0.32031-0.32031-0.32031-0.032 0-0.07737-3.757e-4 -0.10937 0.015636l-0.50781 0.17186v-2.5547l0.73438-0.25781c0.128-0.048 0.20312-0.17669 0.20312-0.30469v-0.96094c0-0.176-0.14431-0.32031-0.32031-0.32031-0.032 0-0.07737-3.76e-4 -0.10937 0.01564l-0.50782 0.1953v-2.3203c0-0.16-0.12906-0.30469-0.28906-0.30469zm-8.8047 2c-0.16 0-0.30469 0.14469-0.30469 0.30469v2.5234l-1.3281 0.5v-2.3203c0-0.16-0.13687-0.30469-0.29687-0.30469-0.16 0-0.28906 0.14469-0.28906 0.30469v2.5234l-0.74219 0.27344c-0.128 0.048-0.20312 0.16106-0.20312 0.28906v0.96094c0 0.176 0.14431 0.32031 0.32031 0.32031 0.032 0 0.077376 3.769e-4 0.10938-0.015636l0.51562-0.17967v2.5625l-0.74219 0.25781c-0.128 0.048-0.20312 0.17669-0.20312 0.30469v0.96094c0 0.176 0.14431 0.32031 0.32031 0.32031 0.032 0 0.077376 3.75e-4 0.10938-0.01564l0.51562-0.1953v2.3203c0 0.16 0.12906 0.30469 0.28906 0.30469 0.16 0 0.29687-0.14469 0.29687-0.30469v-2.5312l1.3281-0.49219v2.3203c0 0.16 0.14469 0.30469 0.30469 0.30469 0.16 0 0.28906-0.14469 0.28906-0.30469v-2.5312l0.73438-0.27344c0.128-0.048 0.21094-0.15325 0.21094-0.28125v-0.96094c0-0.176-0.14431-0.32031-0.32031-0.32031-0.032 0-0.077376-3.75e-4 -0.10938 0.01564l-0.51562 0.17186v-2.5547l0.73438-0.25781c0.128-0.048 0.21094-0.17669 0.21094-0.30469v-0.96094c0-0.176-0.14431-0.32031-0.32031-0.32031-0.032 0-0.077376-3.76e-4 -0.10938 0.01564l-0.51562 0.1953v-2.3203c0-0.16-0.12906-0.30469-0.28906-0.30469zm8.5 2.4766v2.5625l-1.3281 0.47656v-2.5547zm-8.8047 2v2.5625l-1.3281 0.47656v-2.5547zm4.7109 1.5234c-0.16 0-0.30469 0.14469-0.30469 0.30469v2.5234l-1.3281 0.5v-2.3203c0-0.16-0.14469-0.30469-0.30469-0.30469-0.16 0-0.28906 0.14469-0.28906 0.30469v2.5234l-0.73437 0.27344c-0.128 0.048-0.21094 0.16106-0.21094 0.28906v0.96094c0 0.176 0.14431 0.32031 0.32031 0.32031 0.032 0 0.07738 3.77e-4 0.10938-0.01564l0.51562-0.17967v2.5625l-0.73437 0.25781c-0.128 0.048-0.21094 0.17669-0.21094 0.30469v0.96094c0 0.176 0.14431 0.32031 0.32031 0.32031 0.032 0 0.07738 3.75e-4 0.10938-0.01564l0.51562-0.1953v2.3203c0 0.16 0.12906 0.30468 0.28906 0.30468s0.30469-0.14468 0.30469-0.30468v-2.5312l1.3281-0.49218v2.3203c0 0.16 0.14469 0.30468 0.30469 0.30468s0.28125-0.14468 0.28125-0.30468v-2.5313l0.74219-0.27344c0.128-0.048 0.20313-0.15325 0.20313-0.28125v-0.96094c0-0.176-0.14431-0.32031-0.32032-0.32031-0.032 0-0.07737-3.75e-4 -0.10937 0.01564l-0.51563 0.17186v-2.5547l0.74219-0.25781c0.128-0.048 0.20313-0.17669 0.20313-0.30469v-0.96094c0-0.176-0.14431-0.32031-0.32032-0.32031-0.032 0-0.07737-3.76e-4 -0.10937 0.01564l-0.51563 0.1953v-2.3203c0-0.16-0.12125-0.30469-0.28125-0.30469zm-0.30469 4.4766v2.5625l-1.3281 0.47656v-2.5547z" fill="#202020" stroke-width=".016"/></svg>
