<?xml version="1.0" encoding="UTF-8"?>
<svg width="16" height="16" version="1.1" xmlns="http://www.w3.org/2000/svg"><path d="m2.3535 3a0.38 0.38 0 0 0-0.35352 0.38086v1.2402a0.38 0.38 0 0 0 0.38477 0.37891h1.2305a0.38 0.38 0 0 0 0.38477-0.38086v-1.2402a0.38 0.38 0 0 0-0.38477-0.37891h-1.2305a0.38 0.38 0 0 0-0.03125 0zm4.1406 0c-0.277 0-0.5 0.223-0.5 0.5v1a0.499 0.499 0 0 0 0.5 0.5h7c0.277 0 0.5-0.223 0.5-0.5v-1c0-0.277-0.223-0.5-0.5-0.5h-7zm0 4c-0.277 0-0.5 0.223-0.5 0.5v1a0.499 0.499 0 0 0 0.5 0.5h7c0.277 0 0.5-0.223 0.5-0.5v-1c0-0.277-0.223-0.5-0.5-0.5h-7zm-4.1094 0.015625v0.0019531a0.38 0.38 0 0 0-0.38477 0.37695v1.2422a0.38 0.38 0 0 0 0.38477 0.37891h1.2305a0.38 0.38 0 0 0 0.38477-0.37891v-1.2422a0.38 0.38 0 0 0-0.38477-0.37891h-1.2305zm-0.03125 3.9844a0.38 0.38 0 0 0-0.35352 0.38086v1.2402a0.38 0.38 0 0 0 0.38477 0.37891h1.2305a0.38 0.38 0 0 0 0.38477-0.37891v-1.2422a0.38 0.38 0 0 0-0.38477-0.37891h-1.2305a0.38 0.38 0 0 0-0.03125 0zm4.1406 0c-0.277 0-0.5 0.223-0.5 0.5v1a0.499 0.499 0 0 0 0.5 0.5h7c0.277 0 0.5-0.223 0.5-0.5v-1c0-0.277-0.223-0.5-0.5-0.5h-7z" color="#000000" fill="#202020"/></svg>
