<?xml version="1.0" encoding="UTF-8"?>
<svg width="16.014" height="16" version="1.1" xmlns="http://www.w3.org/2000/svg"><path d="m3 8h10" fill="none" opacity=".2" stroke="#202020" stroke-width="2"/><path d="m2 0s-0.45927-0.013531-0.94727 0.23047c-0.489 0.245-1.0527 0.93653-1.0527 1.7695v12c0 0.833 0.56373 1.5245 1.0527 1.7695 0.488 0.244 0.94727 0.23047 0.94727 0.23047h12c0.833 0 1.5245-0.56373 1.7695-1.0527 0.244-0.488 0.23047-0.94727 0.23047-0.94727v-12c0-0.833-0.56373-1.5245-1.0527-1.7695-0.487-0.244-0.94727-0.23047-0.94727-0.23047zm0 2h12v12h-12z" color="#000000" fill="#202020" fill-rule="evenodd" style="font-feature-settings:normal;font-variant-alternates:normal;font-variant-caps:normal;font-variant-ligatures:normal;font-variant-numeric:normal;font-variant-position:normal;isolation:auto;mix-blend-mode:normal;shape-padding:0;text-decoration-color:#000000;text-decoration-line:none;text-decoration-style:solid;text-indent:0;text-orientation:mixed;text-transform:none;white-space:normal"/><path d="m9.1953 7.987q0-1.4583-0.27604-2.0521-0.27083-0.59896-0.91667-0.59896-0.64583 0-0.92188 0.59896-0.27604 0.59375-0.27604 2.0521 0 1.474 0.27604 2.0781 0.27604 0.60417 0.92188 0.60417 0.64062 0 0.91667-0.60417 0.27604-0.60417 0.27604-2.0781zm2.0052 0.015625q0 1.9323-0.83333 2.9844-0.83333 1.0469-2.3646 1.0469-1.5365 0-2.3698-1.0469-0.83333-1.0521-0.83333-2.9844 0-1.9375 0.83333-2.9844 0.83333-1.0521 2.3698-1.0521 1.5312 0 2.3646 1.0521 0.83333 1.0469 0.83333 2.9844z" fill="#202020" style="font-feature-settings:normal;font-variant-caps:normal;font-variant-ligatures:normal;font-variant-numeric:normal"/><path d="m3 3.9661h10" fill="none" opacity=".2" stroke="#202020" stroke-width="2"/><path d="m3 12.034h10" fill="none" opacity=".2" stroke="#202020" stroke-width="2"/></svg>
