<?xml version="1.0" encoding="UTF-8"?>
<svg width="16.014" height="16" version="1.1" xmlns="http://www.w3.org/2000/svg"><path d="M 13.25,2 C 13.1115,2 13,2.1115 13,2.25 V 16 h 2 V 2.25 C 15,2.1115 14.8885,2 14.75,2 Z m -9,3 C 4.1115,5 4,5.1115 4,5.25 V 16 H 6 V 5.25 C 6,5.1115 5.8885,5 5.75,5 Z m -3,3 C 1.1115,8 1,8.1115 1,8.25 V 16 H 3 V 8.25 C 3,8.1115 2.8885,8 2.75,8 Z m 9,0 C 10.1115,8 10,8.1115 10,8.25 V 16 h 2 V 8.25 C 12,8.1115 11.8885,8 11.75,8 Z m -3,2 C 7.1115,10 7,10.1115 7,10.25 V 16 H 9 V 10.25 C 9,10.1115 8.8885,10 8.75,10 Z" fill="#202020" style="paint-order:markers fill stroke"/></svg>
