<?xml version="1.0" encoding="UTF-8"?>
<svg width="48" height="48" version="1.1" xmlns="http://www.w3.org/2000/svg"><path d="m33.568 0.5332c-0.76953 1.3948-1.5018 3.2242-2.3066 4.6094-0.3014-0.022445-0.59579-0.10156-0.90039-0.10156-1.0645 0-2.1167 0.15671-3.1074 0.40039-0.97794-1.228-2.0208-2.8794-3.002-4.1074a17.253 17.253 0 0 0-2.6055 1.2031c0.30781 1.5487 0.88695 3.4335 1.2012 5.0078a12.367 12.367 0 0 0-2.8047 2.8047c-1.5743-0.31422-3.4623-0.89336-5.0078-1.2012a17.25 17.25 0 0 0-1.2031 2.6055c1.228 0.98435 2.8787 2.0279 4.1035 3.0059a12.995 12.995 0 0 0-0.39648 3.1094c0 0.3046 0.07716 0.60024 0.09961 0.89844-1.3851 0.808-3.2127 1.5391-4.6074 2.3086 0.16032 0.87854 0.41065 1.7731 0.69922 2.6035 1.5775-0.032061 3.5254-0.30594 5.1094-0.30274 0.59959 1.2569 1.3479 2.4174 2.3066 3.4082-0.5515 1.4974-1.4364 3.2321-2.0039 4.707 0.68296 0.56432 1.4432 1.0454 2.2031 1.5039 1.1864-1.026 2.4874-2.4722 3.709-3.5078 1.212 0.5547 2.5256 0.85321 3.9043 1.0039 0.52905 1.5294 0.97876 3.488 1.5078 5.0078a17.443 17.443 0 0 0 2.8027-0.19727c0.25651-1.5807 0.35147-3.5885 0.60156-5.2109 1.3146-0.37514 2.5976-0.85643 3.707-1.6035 1.3595 0.84648 2.8828 2.0179 4.207 2.8066 0.71822-0.60921 1.3947-1.2889 2.0039-2.0039-0.78876-1.3274-1.955-2.8482-2.8047-4.2109 0.74708-1.1062 1.2264-2.3924 1.6016-3.707 1.6256-0.24689 3.6302-0.34185 5.2109-0.60156a17.346 17.346 0 0 0 0.20312-2.8066c-1.523-0.52584-3.4823-0.97416-5.0117-1.5-0.1507-1.3787-0.44851-2.6962-1-3.9082 1.0324-1.2184 2.4766-2.5239 3.5059-3.707a17.834 17.834 0 0 0-1.5059-2.2051c-1.4749 0.56753-3.2065 1.4524-4.707 2.0039a12.774 12.774 0 0 0-3.4043-2.3066c-0.0032-1.5839 0.26802-3.5331 0.29688-5.1074a18.052 18.052 0 0 0-2.6035-0.70117h-0.001953zm-3.207 10.92a6.4127 6.4127 0 1 1 0 12.826 6.4127 6.4127 0 0 1 0-12.826zm-21.445 13.127c-0.73746 0.1507-1.4218 0.41901-2.1016 0.70117-0.054508 2.0008 0.27719 4.6244-0.50195 5.3105-0.76953 0.67334-3.3303 0.10881-5.3086-0.099609a11.629 11.629 0 0 0-1.0039 2.4043c1.5326 1.2697 3.6557 2.6906 3.707 3.707 0.051302 1.0292-2.0083 2.581-3.4062 4.0078 0.33026 0.82724 0.80254 1.582 1.3027 2.3066 1.9495-0.40721 4.3805-1.1999 5.2109-0.60352 0.84327 0.60921 0.84826 3.2262 1.1016 5.2109 0.80159 0.24048 1.6414 0.33626 2.5039 0.40039 0.90099-1.7763 1.8191-4.2321 2.8066-4.5078 1.0132-0.28537 3.09 1.4682 4.8086 2.5039 0.70219-0.48416 1.3239-1.0811 1.9043-1.7031-0.81442-1.834-2.3115-4.143-1.9043-5.1113 0.41041-0.96832 3.1264-1.5054 5.0117-2.2012 0.01282-0.23727 0.095703-0.46265 0.095703-0.70312 0-0.61242-0.10749-1.2147-0.19727-1.8047-1.9431-0.51302-4.7043-0.76937-5.2109-1.6992-0.50019-0.92664 0.77585-3.4067 1.4043-5.3145a11.822 11.822 0 0 0-2.1035-1.5039c-1.6064 1.2024-3.4793 3.1906-4.5117 3.0078-1.0164-0.17956-2.1245-2.6285-3.2051-4.3086-0.12825 0.02244-0.27409-0.02565-0.40234 0zm2.0039 6.0117a5.4123 5.4123 0 1 1 0 10.822 5.4123 5.4123 0 0 1 0-10.822z" color="#000000" fill="#202020"/></svg>
