<?xml version="1.0" encoding="UTF-8"?>
<svg width="48" height="48" enable-background="new" version="1.1" xmlns="http://www.w3.org/2000/svg"><title>Gnome Symbolic Icons</title><path d="m2 0c-1.108 0-2 0.892-2 2v44c0 1.108 0.892 2 2 2h44c1.108 0 2-0.892 2-2v-44c0-1.108-0.892-2-2-2h-44zm28 2h16v2h-16v-2zm-27.818 4h43.637c0.1527 0 0.18164 0.029841 0.18164 0.18164v39.637c0 0.1518-0.028941 0.18164-0.18164 0.18164h-43.637c-0.1518 0-0.18164-0.028941-0.18164-0.18164v-39.637c0-0.1527 0.029841-0.18164 0.18164-0.18164zm21.602 5v0.001953c-4.22 0.06-9.889 1.6046-9.793 6.5605 0.1 5.174 5.8328 3.3235 6.2988 5.4375 0.070001-0.09 0.176-0.164 0.25-0.25 0.394-0.428 0.7915-0.7755 1.1875-1.1875 0.624-0.704 1.2716-1.3585 1.9336-2.0625 2.212-2.356 2.3078-2.5 7.5918-6.5-2.07-1.24-4.5158-1.93-6.5938-2-0.268-8e-3 -0.593-2e-3 -0.875 0zm12.291 0.001953c-3.6 2.598-8.4125 6.604-12.23 10.666-0.346 0.37-0.67981 0.72575-1.0078 1.0938-0.208 0.216-0.42486 0.39124-0.63086 0.61523-0.132 0.154-0.25091 0.32647-0.37891 0.48047-2.6044 2.8783-5.1563 6.2637-7.291 9.3809-0.6258-0.31852-1.4054-0.36561-2.2402 0.18555-1.506 0.996-1.1909 4.5723-4.2949 4.5723 0.29669 1.2022 3.4703 1.1842 5.6172 0.64844 2.026-0.508 2.6457-2.2855 2.2617-3.7695-0.054476-0.20936-0.16072-0.42337-0.28711-0.63281 3.9675-3.2861 6.7698-6.0214 8.6934-8.0605 0.48-0.492 1.0612-1.1337 1.7012-1.8457 2.408-2.67 5.8519-6.876 10.088-13.334zm-16.135 3.0605a2.998 2.998 0 0 1 0.039063 0c1.654 0 2.9941 1.344 2.9941 3a2.998 2.998 0 1 1-3.0332-3zm14.576 1.3223c-2.836 4.47-4.7362 7.1137-6.7402 9.1777-1.278 1.314-2.3261 2.6206-3.2441 3.5586-1.678 1.782-3.8748 3.8835-6.2988 6.1875 0.126 2.938 1.6203 5.4935 6.4883 6.4375 7.796 1.512 16.053-3.6491 15.221-14.123-0.356-4.496-2.8098-8.5623-5.4258-11.238zm0.68359 7.6152a2 2 0 0 1 0 4 2 2 0 0 1 0-4zm-1.248 5.998v0.001953a2 2 0 0 1 0 3.998 2 2 0 0 1 0-4zm-9.9785 3.998a2 2 0 0 1 0 4 2 2 0 0 1 0-4zm5.9863 0a2 2 0 0 1 0 4 2 2 0 0 1 0-4z" color="#000000" color-rendering="auto" enable-background="accumulate" fill="#202020" image-rendering="auto" shape-rendering="auto" solid-color="#000000" style="isolation:auto;mix-blend-mode:normal;paint-order:normal;text-decoration-color:#000000;text-decoration-line:none;text-decoration-style:solid;text-indent:0;text-transform:none;white-space:normal"/></svg>
