<?xml version="1.0" encoding="UTF-8"?>
<svg width="48" height="48" version="1.1" xmlns="http://www.w3.org/2000/svg"><path d="m22.404 34.998a10.402 10.402 0 0 1-10.402 10.402 10.402 10.402 0 0 1-10.399-10.402 10.402 10.402 0 0 1 10.399-10.402 10.402 10.402 0 0 1 10.402 10.402z" color="#000000" fill="#202020" opacity=".5" overflow="visible"/><path d="m24 2c-6.6059 0-12 5.3863-12 12 0 6.6098 5.3921 12 12 12 6.6098 0 12-5.3921 12-12.002 0-6.6098-5.3902-12.002-12-12.002zm0.0039 3.1934a8.7791 8.7791 0 0 1 8.8027 8.8027 8.7791 8.7791 0 0 1-8.8027 8.8027 8.7791 8.7791 0 0 1-8.8008-8.8027 8.7791 8.7791 0 0 1 8.8008-8.8027zm-12.002 17.803c-6.6098 0-12.002 5.3921-12.002 12.002s5.3921 12.002 12.002 12.002 12.002-5.3921 12.002-12.002-5.3921-12.002-12.002-12.002zm12.002 12.002a12.002 12.002 0 0 0 12 12.002 12.002 12 0 0 0 11.996-12 12 12 0 0 0-12-12 12 12 0 0 0-12 12zm-12.004-8.8027a8.7791 8.7791 0 0 1 8.8027 8.8027 8.7791 8.7791 0 0 1-8.8027 8.8027 8.7791 8.7791 0 0 1-8.8008-8.8027 8.7791 8.7791 0 0 1 8.8008-8.8027z" color="#000000" fill="#202020" style="font-feature-settings:normal;font-variant-alternates:normal;font-variant-caps:normal;font-variant-ligatures:normal;font-variant-numeric:normal;font-variant-position:normal;isolation:auto;mix-blend-mode:normal;shape-padding:0;text-decoration-color:#000000;text-decoration-line:none;text-decoration-style:solid;text-indent:0;text-orientation:mixed;text-transform:none;white-space:normal"/></svg>
