<?xml version="1.0" encoding="UTF-8"?>
<svg width="16.014" height="16" version="1.1" xmlns="http://www.w3.org/2000/svg"><path d="m1 0c-0.554 0-1 0.446-1 1v14c0 0.554 0.446 1 1 1h14c0.554 0 1-0.446 1-1v-14c0-0.554-0.446-1-1-1h-3.25-2.5-8.25zm0 1h3v8.75c0 0.1385 0.1115 0.25 0.25 0.25h0.75v5h-4v-14zm6 0h2v8.75c0 0.1385 0.1115 0.25 0.25 0.25h0.75v5h-4v-5h0.75c0.1385 0 0.25-0.1115 0.25-0.25v-8.75zm5 0h3v14h-4v-5h0.75c0.1385 0 0.25-0.1115 0.25-0.25v-8.75z" fill="#202020" style="paint-order:markers fill stroke"/></svg>
