<?xml version="1.0" encoding="UTF-8" standalone="no"?>
<svg
   xmlns:dc="http://purl.org/dc/elements/1.1/"
   xmlns:cc="http://creativecommons.org/ns#"
   xmlns:rdf="http://www.w3.org/1999/02/22-rdf-syntax-ns#"
   xmlns:svg="http://www.w3.org/2000/svg"
   xmlns="http://www.w3.org/2000/svg"
   xmlns:sodipodi="http://sodipodi.sourceforge.net/DTD/sodipodi-0.dtd"
   xmlns:inkscape="http://www.inkscape.org/namespaces/inkscape"
   width="16"
   height="16"
   version="1.1"
   id="svg4681"
   sodipodi:docname="play_mode.svg"
   inkscape:version="0.92.4 (5da689c313, 2019-01-14)">
  <metadata
     id="metadata4687">
    <rdf:RDF>
      <cc:Work
         rdf:about="">
        <dc:format>image/svg+xml</dc:format>
        <dc:type
           rdf:resource="http://purl.org/dc/dcmitype/StillImage" />
        <dc:title></dc:title>
      </cc:Work>
    </rdf:RDF>
  </metadata>
  <defs
     id="defs4685" />
  <sodipodi:namedview
     pagecolor="#ffffff"
     bordercolor="#666666"
     borderopacity="1"
     objecttolerance="10"
     gridtolerance="10"
     guidetolerance="10"
     inkscape:pageopacity="0"
     inkscape:pageshadow="2"
     inkscape:window-width="960"
     inkscape:window-height="1080"
     id="namedview4683"
     showgrid="false"
     inkscape:zoom="14.75"
     inkscape:cx="4.8813559"
     inkscape:cy="6.6440678"
     inkscape:window-x="2560"
     inkscape:window-y="0"
     inkscape:window-maximized="0"
     inkscape:current-layer="svg4681" />
  <path
     d="M 2.5 3 A 2.495 2.495 0 0 0 0 5.5 L 0 11.5 C 0 12.885 1.115 14 2.5 14 L 13.5 14 C 14.885 14 16 12.885 16 11.5 L 16 5.5 C 16 4.115 14.885 3 13.5 3 L 2.5 3 z M 4.5 6 C 5.875 6 7 7.125 7 8.5 C 7 9.065 6.78775 9.58 6.46875 10 L 9.53125 10 C 9.21325 9.58 9.0019531 9.065 9.0019531 8.5 C 9.0009531 7.125 10.124 6 11.5 6 C 12.874 6 14 7.125 14 8.5 C 14 9.875 12.874 11 11.5 11 L 4.5 11 A 2.508 2.508 0 0 1 2 8.5 C 2 7.125 3.124 6 4.5 6 z M 4.5 7 C 3.666 7 3 7.666 3 8.5 C 3 9.334 3.666 10 4.5 10 C 5.335 10 6 9.334 6 8.5 C 6 7.666 5.335 7 4.5 7 z M 11.5 7 C 10.666 7 10 7.666 10 8.5 C 10 9.334 10.666 10 11.5 10 C 12.335 10 13 9.334 13 8.5 C 13 7.666 12.335 7 11.5 7 z "
     id="path4679"
     style="fill:#202020;fill-opacity:1" />
</svg>
