<?xml version="1.0" encoding="UTF-8"?>
<svg width="16" height="16" version="1.1" xmlns="http://www.w3.org/2000/svg"><path d="m7.9688 1c-3.306 0-6.0238 3.0078-5.9688 5.7188 0.048 2.365 0.809 4.6952 1 5.2812h0.0019531l0.48828 1.6152c0.299 0.988 1.3049 1.5592 2.2539 1.2812 0.948-0.277 1.4719-1.2952 1.1719-2.2832l-0.67578-2.2246c-0.3-0.988-1.304-1.5602-2.252-1.2832-0.11376 0.033205-0.22143 0.077662-0.32227 0.13086-0.22551-1.3372-0.18945-2.3926-0.18945-2.3926 0-2.373 2.0062-4.3125 4.4922-4.3125 2.485 0 4.5002 1.8262 4.4922 4.2812-0.012664 0.88328-0.068153 1.5867-0.23242 2.4141-0.070767-0.031562-0.14028-0.065558-0.2168-0.087891-0.948-0.278-1.952 0.2952-2.252 1.2832l-0.67578 2.2246c-0.3 0.987 0.22388 2.0062 1.1719 2.2832 0.949 0.277 1.9549-0.29325 2.2539-1.2812l0.49805-1.6484h0.017579c0.225-0.645 0.97461-3.1902 0.97461-5.2812 0-2.83-2.7262-5.7188-6.0312-5.7188z" fill="#202020"/></svg>
