<?xml version="1.0" encoding="UTF-8"?>
<svg width="16" height="16" version="1.1" xmlns="http://www.w3.org/2000/svg"><path d="m1 1v0.5l13.5 13.5h0.5v-0.5l-2.1094-2.1094 0.11719-0.39062h0.017579c0.225-0.645 0.97461-3.1902 0.97461-5.2812 0-2.83-2.7262-5.7188-6.0312-5.7188-1.7501 0-3.3302 0.84692-4.4258 2.043l-2.043-2.043h-0.5zm6.9688 1.5312c2.485 0 4.5002 1.8262 4.4922 4.2812-0.012666 0.88328-0.068153 1.5867-0.23242 2.4141-0.070767-0.031562-0.14028-0.065558-0.2168-0.087891-0.67395-0.19763-1.3705 0.039642-1.8262 0.54688l-5.623-5.623c0.82023-0.93068 2.0336-1.5312 3.4062-1.5312zm-5.2754 1.6621c-0.45715 0.80388-0.71054 1.6787-0.69336 2.5254 0.048 2.365 0.809 4.6952 1 5.2812h0.0019531l0.48828 1.6152c0.299 0.988 1.3049 1.5592 2.2539 1.2812 0.948-0.277 1.4719-1.2952 1.1719-2.2832l-0.67578-2.2246c-0.3-0.988-1.304-1.5602-2.252-1.2832-0.11376 0.033205-0.22143 0.077662-0.32227 0.13086-0.22551-1.3372-0.18945-2.3926-0.18945-2.3926 0-0.54881 0.11677-1.0709 0.3125-1.5547l-1.0957-1.0957zm6.8711 6.8711-0.48047 1.582c-0.3 0.987 0.22388 2.0062 1.1719 2.2832 0.86222 0.25167 1.7651-0.20041 2.1484-1.0254l-2.8398-2.8398z" fill="#202020" opacity="0.5"/></svg>
