<?xml version="1.0" encoding="UTF-8"?>
<svg width="64" height="64" version="1.1" xmlns="http://www.w3.org/2000/svg"><path d="m32.018-0.016062c-1.6062 0-3.2766 0.64246-4.5173 1.8832l-25.598 25.598c-2.4895 2.4895-2.4895 6.5451 0 9.0346l25.598 25.598c2.4895 2.4895 6.5451 2.4895 9.0346 0l25.598-25.598c2.4895-2.4895 2.4895-6.5451 0-9.0346l-25.598-25.598a6.4407 6.4407 0 0 0-4.5173-1.8832zm-0.75489 11.922c6.5973-0.36942 12.432 4.698 12.801 11.295 0 5.6215-1.5178 7.7135-6.4005 11.416-0.76292 0.57822-1.309 1.0038-1.5058 1.2568-0.20077 0.24494-0.12448 0.13251-0.12448 0.12448 0.02811 2.1201-1.8953 4.0154-4.0154 4.0154-2.1241 0-4.0435-1.8953-4.0154-4.0154 0-2.0157 0.89944-3.7865 1.8832-5.0192a15.339 15.339 0 0 1 2.883-2.7626c0.81914-0.64246 1.8511-1.5419 2.7626-2.6341 0.37343-0.44972 0.51798-1.2327 0.50192-1.7547v-0.12448a3.9672 3.9672 0 0 0-4.2683-3.7664c-2.2607 0.12849-3.8909 1.7547-3.7624 4.0154h-8.0308c-0.36942-6.5933 4.698-11.677 11.291-12.046zm0.75489 32.123a4.0154 4.0154 0 1 1 0 8.0308 4.0154 4.0154 0 0 1 0-8.0308z" color="#bebebe" fill="#202020" overflow="visible"/></svg>
