<?xml version="1.0" encoding="UTF-8"?>
<svg width="64" height="64" version="1.1" xmlns="http://www.w3.org/2000/svg"><path d="m31.73 0.025814c-2.1117-0.11665-4.1751 1.1383-5.78 3.8976l-25.139 46.626c-2.1479 3.8815 0.19307 9.4322 4.4004 9.4322h52.917c3.9499 0 7.6544-4.6658 4.9031-9.4282l-25.393-46.381c-1.6049-2.5984-3.793-4.0343-5.9087-4.1469zm0.25742 15.832c2.1881-0.06838 4.2153 1.9588 4.147 4.151v15.84c0.02816 2.1238-1.8945 4.0223-4.0223 4.0223-2.1238 0-4.0504-1.8985-4.0223-4.0223v-15.84a4.155 4.155 0 0 1 3.2701-4.0223c0.20111-0.05631 0.41429-0.09653 0.62747-0.12067zm0.12067 28.035a4.0223 4.0223 0 1 1 0 8.0445 4.0223 4.0223 0 0 1 0-8.0445z" color="#bebebe" fill="#202020" stroke-width="4.0223"/></svg>
