<?xml version="1.0" encoding="UTF-8"?>
<svg width="64" height="64" version="1.1" xmlns="http://www.w3.org/2000/svg"><path d="m31.967 0a24.04 24.04 0 0 0-23.477 19.109c-2.112 10.132 2.764 20.141 11.5 25.305l0.0078 3.5937a4 4 0 0 0 4 3.9922h16a4 4 0 0 0 4-3.9922l0.0078-3.6016c8.732-5.172 13.593-15.188 11.477-25.32a24.04 24.04 0 0 0-23.508-19.086zm0.01563 8c7.6 0 14.116 5.2866 15.672 12.727a15.96 15.96 0 0 1-9.25 17.938 4 4 0 0 0-2.3984 3.6562l-0.007818 1.6797h-8.0078v-1.6719a4 4 0 0 0-2.4062-3.6562 15.968 15.968 0 0 1-9.2578-17.938 15.96 15.96 0 0 1 15.656-12.734zm-4.0156 15.977a2 2 0 0 0-1.3906 3.4375l4 4a2 2 0 0 0 2.8281 0l4-4a2 2 0 1 0-2.8281-2.8281l-2.5859 2.5859-2.5859-2.5859a2 2 0 0 0-1.4375-0.60937zm-3.9688 32.023v4c0 2.216 1.784 4 4 4h8c2.216 0 4-1.784 4-4v-4z" color="#000000" fill="#202020" style="font-feature-settings:normal;font-variant-alternates:normal;font-variant-caps:normal;font-variant-ligatures:normal;font-variant-numeric:normal;font-variant-position:normal;isolation:auto;mix-blend-mode:normal;shape-padding:0;text-decoration-color:#000000;text-decoration-line:none;text-decoration-style:solid;text-indent:0;text-orientation:mixed;text-transform:none;white-space:normal"/></svg>
