<?xml version="1.0" encoding="UTF-8"?>
<svg width="24" height="24" version="1.2" xmlns="http://www.w3.org/2000/svg"><path d="m10.143 2c-0.14718 0-0.26562 0.11844-0.26562 0.26562v6.6855c-0.5409-0.41384-1.2734-0.61719-2.0312-0.61719-1.0892 0-2.153 0.39912-3.1094 0.95703-1.2487 0.74388-2.7363 2.0442-2.7363 3.957 0 1.6472 1.4087 2.418 2.8965 2.418 1.0892 0 2.151-0.39912 3.1074-0.95703 1.2487-0.74388 2.7363-2.0442 2.7363-3.957 0-0.075148-0.017702-0.13943-0.023437-0.21094 0.004718-0.019881 0.023437-0.033324 0.023437-0.054688v-8.2207c0-0.14718-0.11844-0.26562-0.26562-0.26562h-0.33203zm11.176 15c-0.03741 6e-3 -0.041768 0.036838-0.074218 0.048828-0.0169 0.0017-0.046825 0.005659-0.046875 0.00586-4e-6 0-0.00546 0.003606-0.00586 0.003906 0.0017-1.88e-4 0.030508-0.00376 0.048828-0.00586-0.047163 0.018045-0.088939 0.041642-0.13086 0.064454 0.017831-0.013381 0.038645-0.029495 0.048828-0.03711-0.020444 0.013516-0.049003 0.032131-0.074219 0.048828-0.014999 0.008797-0.027411 0.017991-0.041015 0.027344-0.008438 0.005589-0.014874 0.009952-0.023438 0.015625-0.002622 0.002061-0.005575 0.004426-0.007812 0.005859-0.01578 0.0105-0.048798 0.03121-0.048828 0.03125a0.49762 0.49762 0 0 0-0.029297 0.039063 0.49762 0.49762 0 0 0-0.003906 0.005859c-0.02217 0.02375-0.027899 0.013075-0.048829 0.046875l0.015625-0.023437c-1.3693 1.9612-3.8973 3.0156-6.457 3.0156-2.5582 0-5.0833-1.0527-6.4531-3.0117-0.024871-0.03622-0.029619-0.026308-0.052734-0.048828l-0.0019532-0.001953a0.49762 0.49762 0 0 0-0.074219-0.087891c-0.00711-0.0066-0.025269-0.001512-0.033203-0.007812v-0.001954c-0.010819-0.0087-0.032728-0.003558-0.044922-0.011718-0.038264-0.02856-0.085882-0.06247-0.085938-0.0625-9.2e-6 -2e-6 -0.010467-0.001753-0.011719-0.001953-6.82e-5 -2.1e-5 0.049098 0.033553 0.09375 0.064453-0.08558-0.0566-0.1939-0.077702-0.31055-0.082032 0.0056399-0.0011 0.017619-0.003906 0.017578-0.003906-1.657e-4 1.5e-5 0.11173 0.012238 0.16211 0.017578-0.058561-0.0066-0.16001-0.019541-0.16016-0.019531-4.53e-5 4e-6 -0.014087 0.002406-0.021484 0.003906-0.042925-0.0014-0.073808-0.039026-0.11523-0.029297h-0.0019531c-0.00149 3.57e-4 -0.0024262-0.002253-0.0039062-0.001953a0.49762 0.49762 0 0 0-0.30664 0.23047c-0.00853 0.01189-0.033864 0.01976-0.041016 0.03125-0.020707 0.03292-0.03969 0.065468-0.048828 0.085938a0.49762 0.49762 0 0 0-0.0058594 0.015625c-0.077596 0.19018-0.077684 0.34263-0.015625 0.5293 0.015682 0.04814 0.035662 0.097202 0.058594 0.13672a0.49762 0.49762 0 0 0 0.0019531 0.001953c-0.016073-0.0272-0.011637-0.019774 0.0058594 0.009766a0.49762 0.49762 0 0 0 0.015625 0.023437c0.029511 0.04396 0.038674 0.034047 0.068359 0.060547 1.6489 2.5891 4.5115 3.8691 7.3652 3.8691 2.8634 0 5.7368-1.2849 7.3828-3.8926 0.02406-0.02381 0.032937-0.015728 0.054687-0.048828 0.02666-0.03997 0.046021-0.07544 0.056641-0.09961a0.49762 0.49762 0 0 0 0.005859-0.011718c0.07783-0.19087 0.078255-0.34562 0.015625-0.5332-0.01559-0.04782-0.037177-0.094609-0.060547-0.13476a0.49762 0.49762 0 0 0-0.013672-0.019531c-0.0243-0.03735-0.049772-0.06727-0.076171-0.09375-0.07256-0.07355-0.21741-0.098369-0.35156-0.11914 0.01641 0.0033 0.035236 0.005859 0.035156 0.005859-9.94e-4 -3.24e-4 -0.003906-0.001853-0.003906-0.001953-9.5e-5 -2.7e-5 -0.019963-0.004212-0.039063-0.007812-0.04838-0.0066-0.075712-0.048906-0.125-0.041016l-0.001953-0.001953zm-13.506 0.14648c0.046346 0.03206 0.083552 0.057424 0.09375 0.064454 0.00897 0.0088 0.0098053 0.006088 0.019531 0.017578v0.001953c-0.01337-0.01006-0.057153-0.042095-0.11328-0.083985zm13.955 0.64453-0.017578 0.023437c-4e-3 0.0056-0.022414 0.009565-0.027344 0.015625 0.01942-0.02195 0.026722-0.009392 0.044922-0.039062zm-0.027344 0.035156-0.017578 0.02539c2.5e-5 -2.6e-5 -0.027132 0.019464-0.039062 0.027344 0.0075-0.01061 0.019893-0.016673 0.027344-0.027344 8.06e-4 -0.0012 0.001053-0.002706 0.001953-0.003906 0.0082-0.0061 0.024373-0.019264 0.027343-0.021484zm-14.57 0.033203c0.00328 0.0023 0.011039 0.006566 0.015625 0.009766-0.00157-0.0014-0.0063125-4.88e-4 -0.0078125-0.001953l-0.0078125-0.007813zm-0.12891 0.23047c0.00706 0.01125 0.018279 0.018097 0.025391 0.029297-0.00476-0.0062-0.0050056-0.001108-0.0097656-0.007813l-0.015625-0.021484z" color="#000000" color-rendering="auto" dominant-baseline="auto" fill="#202020" image-rendering="auto" shape-rendering="auto" solid-color="#000000" style="font-feature-settings:normal;font-variant-alternates:normal;font-variant-caps:normal;font-variant-ligatures:normal;font-variant-numeric:normal;font-variant-position:normal;isolation:auto;mix-blend-mode:normal;shape-padding:0;text-decoration-color:#000000;text-decoration-line:none;text-decoration-style:solid;text-indent:0;text-orientation:mixed;text-transform:none;white-space:normal"/></svg>
