<?xml version="1.0" encoding="UTF-8"?>
<svg width="16.009" height="16" version="1.1" xmlns="http://www.w3.org/2000/svg"><path d="m4.0039 1s-0.70927-0.013531-1.4473 0.35547c-0.739 0.37-1.5527 1.3115-1.5527 2.6445-0.0033346 2.6654-0.0039062 5.3301-0.0039062 8 1e-7 1.333 0.81373 2.2745 1.5527 2.6445 0.738 0.369 1.4473 0.35547 1.4473 0.35547h8c1.333 0 2.2745-0.81373 2.6445-1.5527 0.369-0.738 0.35547-1.4473 0.35547-1.4473 0.0033-2.6654 0.003906-5.3301 0.003906-8 0 0 0.013529-0.70927-0.35547-1.4473-0.37-0.739-1.3115-1.5527-2.6445-1.5527h-8zm0 2h8c0.667 0 0.72352 0.18627 0.85352 0.44727 0.131 0.262 0.14648 0.55273 0.14648 0.55273-0.003334 2.6654-0.003906 5.3301-0.003906 8 0 0-0.01548 0.29073-0.14648 0.55273-0.13 0.261-0.18652 0.44727-0.85352 0.44727h-8s-0.29269-0.013531-0.55469-0.14453c-0.261-0.13-0.44531-0.18847-0.44531-0.85547 0.00333-2.6654 0.0039062-5.3301 0.0039062-8 0-0.667 0.18431-0.72547 0.44531-0.85547 0.262-0.131 0.55469-0.14453 0.55469-0.14453zm3.0059 2v2h-2v2h2v2h2v-2h2v-2h-2v-2h-2z" color="#000000" fill="#202020" style="font-feature-settings:normal;font-variant-alternates:normal;font-variant-caps:normal;font-variant-ligatures:normal;font-variant-numeric:normal;font-variant-position:normal;isolation:auto;mix-blend-mode:normal;shape-padding:0;text-decoration-color:#000000;text-decoration-line:none;text-decoration-style:solid;text-indent:0;text-orientation:mixed;text-transform:none;white-space:normal"/></svg>
