<?xml version="1.0" encoding="UTF-8"?>
<svg width="16" height="16" version="1.1" xmlns="http://www.w3.org/2000/svg"><path d="m8 0c-4.4064 0-8 3.5936-8 8 0 4.4064 3.5936 8 8 8 4.4064 0 8-3.5936 8-8 0-4.4064-3.5936-8-8-8zm0 2c3.3256 0 6 2.6744 6 6 0 3.3256-2.6744 6-6 6-3.3256 0-6-2.6744-6-6 0-3.3256 2.6744-6 6-6zm-4 2v1 6 1h0.92773c0.19825 0.01382 0.39612-0.03173 0.56836-0.13086l7-3c0.67391-0.38348 0.67391-1.3548 0-1.7383l-7-3c-0.1454-0.082804-0.30926-0.1278-0.47656-0.13086-0.0065102-6.36e-5 -0.013021-6.36e-5 -0.019531 0h-1z" color="#000000" fill="#202020" style="font-feature-settings:normal;font-variant-alternates:normal;font-variant-caps:normal;font-variant-ligatures:normal;font-variant-numeric:normal;font-variant-position:normal;isolation:auto;mix-blend-mode:normal;shape-padding:0;text-decoration-color:#000000;text-decoration-line:none;text-decoration-style:solid;text-indent:0;text-orientation:mixed;text-transform:none;white-space:normal"/></svg>
