<?xml version="1.0" encoding="UTF-8"?>
<svg width="16" height="16" version="1.1" xmlns="http://www.w3.org/2000/svg"><path d="m1 1v0.5l0.5 0.5 2.4102 2.4102 1.7344 1.7344 1.4453 1.4453 1.3203 1.3203 1.4453 1.4453 1.6309 1.6309 3.0137 3.0137h0.5v-0.5l-2.9102-2.9102c1.7825-1.2541 2.9102-2.9791 2.9102-3.5898 0-1-3-5-7-5-1.2887 0-2.4721 0.41737-3.4863 1.0137l-3.0137-3.0137h-0.5zm2.3457 3.8457c-1.4505 1.1906-2.3457 2.6113-2.3457 3.1543 0 1 3 5 7 5 1.0206 0 1.9714-0.2668 2.8281-0.67188l-1.5977-1.5977a3 3 0 0 1 -1.2305 0.26953 3 3 0 0 1 -3 -3 3 3 0 0 1 0.26953 -1.2305l-1.9238-1.9238zm4.6543 0.1543a3 3 0 0 1 3 3 3 3 0 0 1 -0.64453 1.8555l-1.4453-1.4453a1 1 0 0 0 0.089844 -0.41016 1 1 0 0 0 -1 -1 1 1 0 0 0 -0.41016 0.089844l-1.4453-1.4453a3 3 0 0 1 1.8555 -0.64453z" fill="#202020" stroke-width="3.7795" opacity=".5"/></svg>
