<?xml version="1.0" encoding="UTF-8"?>
<svg width="16.031" height="16.01" version="1.1" xmlns="http://www.w3.org/2000/svg"><path d="m9.031 15v-10.086l2.793 2.793a1 1 0 0 0 0.707 0.293h1.5v-1a1 1 0 0 0-0.293-0.707l-5-5a1 1 0 0 0-1.414 0l-5 5a1 1 0 0 0-0.293 0.707 1 1 0 0 0 0 0.016v0.984h1.5a1 1 0 0 0 0.707-0.293l2.793-2.793v10.086z" color="#000000" fill="#e0e0e0" font-weight="400" overflow="visible" solid-color="#000000" style="font-feature-settings:normal;font-variant-alternates:normal;font-variant-caps:normal;font-variant-ligatures:normal;font-variant-numeric:normal;font-variant-position:normal;isolation:auto;mix-blend-mode:normal;shape-padding:0;text-decoration-color:#000000;text-decoration-line:none;text-decoration-style:solid;text-indent:0;text-orientation:mixed;text-transform:none;white-space:normal"/></svg>
