<?xml version="1.0" encoding="UTF-8"?>
<svg width="24" height="24" version="1.2" xmlns="http://www.w3.org/2000/svg"><path d="m11.371 22h-0.06559c-1.1805 0-2.1314-0.96186-2.1314-2.1533 0-0.63397 0.57929-1.1258 1.2242-1.1258 0.59025 0 1.0384 0.51375 1.0384 1.1258 0 0.5684-0.47 1.0384-1.0384 1.0384-0.12024 0-0.22954-0.02182-0.33885-0.06558 0.2842 0.42629 0.74325 0.71047 1.2789 0.71047h0.04372zm2.1314-4.7222c0.74325-0.26233 1.2351-1.0384 1.2351-1.7926 0-0.98375-0.72143-1.9565-1.891-2.0768 0.26233 1.2679 0.50282 2.5248 0.65582 3.8693zm-4.23-2.5248c0 1.4756 1.41 2.6999 2.8856 2.6999 0.30604 0 0.60118-0.02182 0.89632-0.06558-0.15302-1.3882-0.40443-2.678-0.68861-3.9786-0.8635 0.08743-1.3554 0.66675-1.3554 1.3007 0 0.48093 0.27326 0.99468 0.88536 1.3445 0.05465 0.05465 0.07652 0.1093 0.07652 0.16396 0 0.12024-0.1093 0.24048-0.24048 0.24048-0.03278 0-0.06558-0.01092-0.09837-0.02182-0.87443-0.47004-1.2789-1.257-1.2789-2.0222 0-0.96186 0.63397-1.9019 1.7489-2.1533-0.15302-0.63397-0.31698-1.2789-0.50282-1.9128-1.1696 1.3226-2.3282 2.656-2.3282 4.405zm2.8529 3.1698c-2.0549 0-3.64-1.88-3.64-4.0879 0-1.9347 1.4319-3.3448 2.7108-4.8204-0.20768-0.67768-0.40443-1.3663-0.49186-2.0768-0.06559-0.5684-0.07652-1.1368-0.07652-1.7051 0-1.257 0.60118-2.4484 1.6286-3.1916 0.06558-0.054654 0.15302-0.054654 0.21861 0 0.77608 0.91815 1.4538 2.678 1.4538 3.9132 0 1.563-0.94004 2.7872-1.9675 3.9786 0.22954 0.74325 0.42629 1.5084 0.61211 2.2626 0.04372 0 0.09837-0.01092 0.14208-0.01092 1.6942 0 2.7983 1.3991 2.7983 2.8529 0 0.83072-0.36068 1.6833-1.1696 2.2954-0.24048 0.18583-0.51375 0.30604-0.79793 0.3935 0.03278 0.38257 0.05465 0.76515 0.05465 1.1477 0 0.20768-0.01092 0.42629-0.02183 0.63397-0.076517 1.3007-0.96189 2.4594-2.208 2.4921l0.01092-0.47c1.0165-0.02182 1.6724-1.0056 1.7379-2.0877 0.01092-0.19676 0.02182-0.40443 0.02182-0.60118 0-0.33885-0.01092-0.66675-0.04372-1.0056-0.31698 0.05465-0.63397 0.08744-0.97279 0.08744zm1.0165-12.876c0-0.60118-0.04372-0.8635-0.21861-1.41-1.0821 0.52464-1.7708 1.6286-1.7708 2.831 0 0.80886 0.19674 1.4538 0.3935 2.1205 0.87443-1.0603 1.5959-2.1643 1.5959-3.5415z" fill="#e0e0e0"/></svg>
