<?xml version="1.0" encoding="UTF-8"?>
<svg width="16" height="16" version="1.2" xmlns="http://www.w3.org/2000/svg"><path d="m6.0709 1c-0.20065 0-0.42315 0.067179-0.6015 0.17864l0.26715 13.264c0 0.31211 0.22318 0.55725 0.51299 0.55725 0.46817 0 0.66864-0.55752 1.0031-0.84732 1.3599-1.1593 3.2779-1.9845 3.2779-3.768 0-1.2039-0.82551-2.2732-1.9848-2.2732-0.73569 0-1.4717 0.28903-2.029 0.7572l0.1557-7.69c-0.17835-0.11147-0.40086-0.17864-0.6015-0.17864zm1.7834 8.0473c0.64652 0 0.95876 0.75905 0.95876 1.4948 0 1.3153-1.0701 2.2505-2.0733 3.0976-0.06688-0.49046-0.088502-0.97966-0.088502-1.4701v-0.24585l0.021307-1.4718c0.022293-0.73569 0.49059-1.4046 1.1817-1.4046z" fill="#e0e0e0" stroke-width=".83596"/></svg>
