<?xml version="1.0" encoding="UTF-8"?>
<svg width="16" height="16" version="1.2" xmlns="http://www.w3.org/2000/svg"><path d="m9.1294 1.0001c-0.18668 1e-7 -0.35545 0.16741-0.35545 0.35408v2.9493l-1.5495 0.57916v-2.7064c9e-7 -0.18668-0.16741-0.35545-0.35408-0.35545s-0.33624 0.16878-0.33624 0.35545v2.9493l-0.85911 0.31703c-0.14935 0.056004-0.24154 0.1869-0.24154 0.33625v1.1199c0 0.20535 0.16795 0.3733 0.3733 0.3733 0.037331-7e-7 0.093044-5.439e-4 0.13038-0.019208l0.597-0.20449v2.9863l-0.85911 0.29919c-0.14935 0.056-0.24154 0.20474-0.24154 0.35408v1.1199c0 0.20535 0.16795 0.37467 0.3733 0.37467 0.037331 0 0.093044-5.44e-4 0.13038-0.01921l0.597-0.22371v2.7064c0 0.18669 0.14956 0.35408 0.33624 0.35408s0.35408-0.1674 0.35408-0.35408v-2.9493l1.5495-0.57916v2.7077c0 0.18668 0.16878 0.35408 0.35545 0.35408 0.18668 0 0.33624-0.1674 0.33624-0.35408v-2.9507l0.85778-0.31703c0.14934-0.056 0.24291-0.1869 0.24291-0.33625v-1.1199c0-0.20535-0.16794-0.3733-0.3733-0.3733-0.03733 0-0.09304 5.446e-4 -0.13038 0.019208l-0.597 0.20449v-2.9863l0.85778-0.29919c0.14935-0.056004 0.24292-0.20474 0.24292-0.35408v-1.1199c0-0.20535-0.16794-0.3733-0.3733-0.3733-0.03733 0-0.09304-8.26e-4 -0.13038 0.017842l-0.597 0.2237v-2.7064c0-0.18668-0.14956-0.35408-0.33624-0.35408zm-0.3549 5.2261v2.9877l-1.5495 0.55995v-2.9877z" fill="#e0e0e0" stroke-width=".7"/></svg>
