<?xml version="1.0" encoding="UTF-8"?>
<svg width="24" height="24" version="1.2" xmlns="http://www.w3.org/2000/svg"><path d="m17.332 2c-0.70526 0-1.2997 0.44624-1.2997 0.97033 0 0.26528 0.17009 0.4451 0.4095 0.4451 0.21352 0 0.36795-0.15444 0.36795-0.36795 0-0.10999-0.03945-0.18728-0.1365-0.2908-0.06468-0.064702-0.092-0.10604-0.092-0.15134 0-0.15528 0.32499-0.31454 0.62908-0.31454 0.43351 0 0.69436 0.23683 0.69436 0.63798 0 0.56938-0.4157 1.1217-0.84273 1.1217-0.01942 0-0.07071-0.0054-0.14837-0.011869-0.1941-0.012944-0.19963-0.014837-0.22552-0.014837-0.13587 0-0.22255 0.064548-0.22255 0.18101 0 0.10352 0.07347 0.16617 0.18991 0.16617 0.03235 0 0.07583-0.0054 0.1276-0.011869 0.09058-0.019412 0.18158-0.026706 0.24629-0.026706 0.3041 0 0.51038 0.2754 0.51038 0.67656 0 0.3041-0.07779 0.59983-0.21365 0.8457-0.1941 0.3494-0.49042 0.52226-0.91098 0.52226-0.35586 0-0.67359-0.17871-0.67359-0.38576 0-0.071172 0.02703-0.10011 0.13056-0.1454 0.18764-0.084112 0.2641-0.19919 0.2641-0.37389 0-0.21999-0.18897-0.39763-0.41543-0.39763-0.27822 0-0.45994 0.21548-0.45994 0.55193 0 0.62761 0.47881 1.0237 1.2552 1.0237 0.97701 0 1.7211-0.65228 1.7211-1.5193 0-0.23293-0.06888-0.43172-0.20475-0.59347-0.14234-0.16822-0.27316-0.24769-0.55786-0.33828 0.07119-0.025882 0.15786-0.051808 0.22255-0.071216 0.53702-0.1941 0.85163-0.59626 0.85163-1.1009 0-0.6082-0.49847-1.0267-1.2166-1.0267zm-5.0261 2.0386c-0.0299 4.221e-4 -0.06059 0.00554-0.08902 0.014837-0.1642 0.04396-0.25739 0.21523-0.20475 0.37685v2.5015c-0.01793 0.41246 0.6114 0.41246 0.59347 0v-2.2967h1.9532c0.41246 0.017931 0.41246-0.60843 0-0.5905h-2.1936c-0.01932-0.00391-0.03965-0.00593-0.05935-0.00593zm9.1293 0c-0.01969 2.2e-6 -0.03706 0.00204-0.05639 0.00593h-2.2036c-0.0098-4.836e-4 -0.01991-4.836e-4 -0.02967 0-0.39454 0.019891-0.36486 0.6104 0.02967 0.5905h1.9692v2.2967c-0.0024 0.39932 0.59593 0.39932 0.59347 0v-2.5133c0.02803-0.10596-0.0027-0.21925-0.08309-0.29377-0.0047-0.00506-0.0099-0.010133-0.01483-0.014837-0.0029-0.00201-0.0059-0.00404-9e-3 -0.00593-0.0047-0.00406-0.0099-0.00811-0.01484-0.01187-0.0028-0.00201-0.0059-0.00404-9e-3 -0.00593-0.0049-0.00306-0.0099-0.00613-0.01483-0.0089-0.0038-0.00204-0.0079-0.0011-0.01188-0.00296-0.0058-0.00311-0.0119-0.00618-0.0178-0.0089-0.0088-0.00335-0.01778-0.00639-0.0267-0.0089-0.03198-0.011547-0.06689-0.017702-0.10089-0.017805zm-9.2777 4.9703c-0.07454 0.0097-0.13169 0.072905-0.13056 0.14837v9.1009c-0.30193-0.23179-0.7099-0.35015-1.1335-0.35015-0.60771 0-1.1994 0.22286-1.7329 0.53412-0.69664 0.41502-1.5282 1.1434-1.5282 2.2107 0 0.91897 0.78422 1.3472 1.6142 1.3472 0.60771 0 1.1994-0.2199 1.7329-0.53116 0.69664-0.41502 1.5282-1.1434 1.5282-2.2107 0-0.0041 3.1e-5 -0.0078 0-0.01188v-8.457h8.7495v1.2226h-4.2895c-5e-3 -2.44e-4 -0.0099-2.44e-4 -0.01484 0-0.07602 0.0069-0.13302 0.06908-0.13353 0.1454v1.4837c8.79e-4 0.08175 0.06659 0.14911 0.14837 0.14837h4.2895v4.4688c-0.30194-0.23179-0.7099-0.35015-1.1335-0.35015-0.60771 0-1.1993 0.22286-1.7329 0.53413-0.69664 0.41502-1.5282 1.1434-1.5282 2.2107 0 0.91897 0.78423 1.3472 1.6142 1.3472 0.60771 0 1.1994-0.2199 1.7329-0.53116 0.69664-0.41502 1.5282-1.1434 1.5282-2.2107 0-0.0041 3.6e-5 -0.01072 0-0.01483v-10.086c7.38e-4 -0.081764-0.06365-0.14749-0.1454-0.14837h-9.4201c-4e-3 -1.947e-4 -0.0079-1.167e-4 -0.01188 0zm-9.9057 1.2661v1.4362h7.7807v-1.4362zm0 3.6261v1.4362h7.7807v-1.4362z" fill="#e0e0e0"/></svg>
